ISO-10303-21;
HEADER;
/* Generated by software containing ST-Developer
 * from STEP Tools, Inc. (www.steptools.com) 
 */

FILE_DESCRIPTION(
/* description */ (''),
/* implementation_level */ '2;1');

FILE_NAME(
/* name */ 'modulo_1404_mini.step',
/* time_stamp */ '2025-10-22T13:30:56-03:00',
/* author */ (''),
/* organization */ (''),
/* preprocessor_version */ 'ST-DEVELOPER v20.1',
/* originating_system */ 'Autodesk Translation Framework v14.17.0.0',
/* authorisation */ '');

FILE_SCHEMA (('AUTOMOTIVE_DESIGN { 1 0 10303 214 3 1 1 }'));
ENDSEC;

DATA;
#10=MECHANICAL_DESIGN_GEOMETRIC_PRESENTATION_REPRESENTATION('',(#13),#2173);
#11=SHAPE_REPRESENTATION_RELATIONSHIP('SRR','None',#2180,#12);
#12=ADVANCED_BREP_SHAPE_REPRESENTATION('',(#14),#2172);
#13=STYLED_ITEM('',(#2189),#14);
#14=MANIFOLD_SOLID_BREP('Body1',#1297);
#15=FACE_BOUND('',#147,.T.);
#16=FACE_BOUND('',#148,.T.);
#17=FACE_BOUND('',#149,.T.);
#18=FACE_BOUND('',#150,.T.);
#19=FACE_BOUND('',#151,.T.);
#20=FACE_BOUND('',#161,.T.);
#21=FACE_BOUND('',#162,.T.);
#22=FACE_BOUND('',#175,.T.);
#23=FACE_BOUND('',#176,.T.);
#24=FACE_BOUND('',#197,.T.);
#25=FACE_BOUND('',#198,.T.);
#26=FACE_BOUND('',#199,.T.);
#27=FACE_BOUND('',#200,.T.);
#28=FACE_BOUND('',#201,.T.);
#29=FACE_BOUND('',#206,.T.);
#30=FACE_BOUND('',#207,.T.);
#31=FACE_BOUND('',#213,.T.);
#32=FACE_BOUND('',#214,.T.);
#33=PLANE('',#1316);
#34=PLANE('',#1321);
#35=PLANE('',#1325);
#36=PLANE('',#1336);
#37=PLANE('',#1337);
#38=PLANE('',#1342);
#39=PLANE('',#1355);
#40=PLANE('',#1356);
#41=PLANE('',#1357);
#42=PLANE('',#1359);
#43=PLANE('',#1360);
#44=PLANE('',#1363);
#45=PLANE('',#1372);
#46=PLANE('',#1373);
#47=PLANE('',#1376);
#48=PLANE('',#1377);
#49=PLANE('',#1380);
#50=PLANE('',#1383);
#51=PLANE('',#1386);
#52=PLANE('',#1387);
#53=PLANE('',#1389);
#54=PLANE('',#1390);
#55=PLANE('',#1393);
#56=PLANE('',#1394);
#57=PLANE('',#1397);
#58=PLANE('',#1398);
#59=PLANE('',#1399);
#60=PLANE('',#1402);
#61=PLANE('',#1403);
#62=PLANE('',#1406);
#63=PLANE('',#1407);
#64=PLANE('',#1410);
#65=PLANE('',#1411);
#66=PLANE('',#1412);
#67=PLANE('',#1413);
#68=PLANE('',#1421);
#69=PLANE('',#1422);
#70=PLANE('',#1424);
#71=PLANE('',#1425);
#72=PLANE('',#1426);
#73=FACE_OUTER_BOUND('',#135,.T.);
#74=FACE_OUTER_BOUND('',#136,.T.);
#75=FACE_OUTER_BOUND('',#137,.T.);
#76=FACE_OUTER_BOUND('',#138,.T.);
#77=FACE_OUTER_BOUND('',#139,.T.);
#78=FACE_OUTER_BOUND('',#140,.T.);
#79=FACE_OUTER_BOUND('',#141,.T.);
#80=FACE_OUTER_BOUND('',#142,.T.);
#81=FACE_OUTER_BOUND('',#143,.T.);
#82=FACE_OUTER_BOUND('',#144,.T.);
#83=FACE_OUTER_BOUND('',#145,.T.);
#84=FACE_OUTER_BOUND('',#146,.T.);
#85=FACE_OUTER_BOUND('',#152,.T.);
#86=FACE_OUTER_BOUND('',#153,.T.);
#87=FACE_OUTER_BOUND('',#154,.T.);
#88=FACE_OUTER_BOUND('',#155,.T.);
#89=FACE_OUTER_BOUND('',#156,.T.);
#90=FACE_OUTER_BOUND('',#157,.T.);
#91=FACE_OUTER_BOUND('',#158,.T.);
#92=FACE_OUTER_BOUND('',#159,.T.);
#93=FACE_OUTER_BOUND('',#160,.T.);
#94=FACE_OUTER_BOUND('',#163,.T.);
#95=FACE_OUTER_BOUND('',#164,.T.);
#96=FACE_OUTER_BOUND('',#165,.T.);
#97=FACE_OUTER_BOUND('',#166,.T.);
#98=FACE_OUTER_BOUND('',#167,.T.);
#99=FACE_OUTER_BOUND('',#168,.T.);
#100=FACE_OUTER_BOUND('',#169,.T.);
#101=FACE_OUTER_BOUND('',#170,.T.);
#102=FACE_OUTER_BOUND('',#171,.T.);
#103=FACE_OUTER_BOUND('',#172,.T.);
#104=FACE_OUTER_BOUND('',#173,.T.);
#105=FACE_OUTER_BOUND('',#174,.T.);
#106=FACE_OUTER_BOUND('',#177,.T.);
#107=FACE_OUTER_BOUND('',#178,.T.);
#108=FACE_OUTER_BOUND('',#179,.T.);
#109=FACE_OUTER_BOUND('',#180,.T.);
#110=FACE_OUTER_BOUND('',#181,.T.);
#111=FACE_OUTER_BOUND('',#182,.T.);
#112=FACE_OUTER_BOUND('',#183,.T.);
#113=FACE_OUTER_BOUND('',#184,.T.);
#114=FACE_OUTER_BOUND('',#185,.T.);
#115=FACE_OUTER_BOUND('',#186,.T.);
#116=FACE_OUTER_BOUND('',#187,.T.);
#117=FACE_OUTER_BOUND('',#188,.T.);
#118=FACE_OUTER_BOUND('',#189,.T.);
#119=FACE_OUTER_BOUND('',#190,.T.);
#120=FACE_OUTER_BOUND('',#191,.T.);
#121=FACE_OUTER_BOUND('',#192,.T.);
#122=FACE_OUTER_BOUND('',#193,.T.);
#123=FACE_OUTER_BOUND('',#194,.T.);
#124=FACE_OUTER_BOUND('',#195,.T.);
#125=FACE_OUTER_BOUND('',#196,.T.);
#126=FACE_OUTER_BOUND('',#202,.T.);
#127=FACE_OUTER_BOUND('',#203,.T.);
#128=FACE_OUTER_BOUND('',#204,.T.);
#129=FACE_OUTER_BOUND('',#205,.T.);
#130=FACE_OUTER_BOUND('',#208,.T.);
#131=FACE_OUTER_BOUND('',#209,.T.);
#132=FACE_OUTER_BOUND('',#210,.T.);
#133=FACE_OUTER_BOUND('',#211,.T.);
#134=FACE_OUTER_BOUND('',#212,.T.);
#135=EDGE_LOOP('',(#841,#842,#843,#844,#845,#846,#847));
#136=EDGE_LOOP('',(#848,#849,#850,#851));
#137=EDGE_LOOP('',(#852,#853,#854,#855));
#138=EDGE_LOOP('',(#856));
#139=EDGE_LOOP('',(#857,#858,#859,#860));
#140=EDGE_LOOP('',(#861));
#141=EDGE_LOOP('',(#862,#863,#864,#865,#866,#867));
#142=EDGE_LOOP('',(#868,#869,#870,#871,#872,#873));
#143=EDGE_LOOP('',(#874,#875,#876,#877,#878,#879));
#144=EDGE_LOOP('',(#880,#881,#882,#883,#884,#885,#886));
#145=EDGE_LOOP('',(#887,#888,#889,#890));
#146=EDGE_LOOP('',(#891,#892,#893,#894,#895,#896,#897,#898,#899,#900,#901,
#902,#903,#904,#905,#906));
#147=EDGE_LOOP('',(#907,#908,#909));
#148=EDGE_LOOP('',(#910,#911,#912,#913));
#149=EDGE_LOOP('',(#914,#915,#916));
#150=EDGE_LOOP('',(#917,#918,#919));
#151=EDGE_LOOP('',(#920,#921,#922));
#152=EDGE_LOOP('',(#923,#924,#925,#926));
#153=EDGE_LOOP('',(#927,#928,#929,#930));
#154=EDGE_LOOP('',(#931,#932,#933,#934,#935,#936,#937,#938));
#155=EDGE_LOOP('',(#939,#940,#941,#942));
#156=EDGE_LOOP('',(#943,#944,#945,#946,#947,#948,#949));
#157=EDGE_LOOP('',(#950,#951,#952,#953));
#158=EDGE_LOOP('',(#954,#955,#956,#957));
#159=EDGE_LOOP('',(#958,#959,#960,#961,#962,#963,#964));
#160=EDGE_LOOP('',(#965,#966,#967,#968,#969,#970,#971,#972,#973,#974,#975,
#976,#977,#978,#979,#980,#981,#982,#983,#984));
#161=EDGE_LOOP('',(#985,#986,#987));
#162=EDGE_LOOP('',(#988,#989,#990));
#163=EDGE_LOOP('',(#991,#992,#993,#994));
#164=EDGE_LOOP('',(#995,#996,#997,#998));
#165=EDGE_LOOP('',(#999,#1000,#1001,#1002));
#166=EDGE_LOOP('',(#1003,#1004,#1005,#1006));
#167=EDGE_LOOP('',(#1007,#1008,#1009,#1010));
#168=EDGE_LOOP('',(#1011,#1012,#1013,#1014));
#169=EDGE_LOOP('',(#1015,#1016,#1017,#1018));
#170=EDGE_LOOP('',(#1019,#1020,#1021,#1022,#1023,#1024));
#171=EDGE_LOOP('',(#1025,#1026,#1027,#1028));
#172=EDGE_LOOP('',(#1029,#1030,#1031,#1032,#1033,#1034));
#173=EDGE_LOOP('',(#1035,#1036,#1037,#1038));
#174=EDGE_LOOP('',(#1039,#1040,#1041,#1042,#1043,#1044,#1045,#1046,#1047,
#1048));
#175=EDGE_LOOP('',(#1049,#1050,#1051));
#176=EDGE_LOOP('',(#1052,#1053,#1054));
#177=EDGE_LOOP('',(#1055,#1056,#1057,#1058));
#178=EDGE_LOOP('',(#1059,#1060,#1061,#1062));
#179=EDGE_LOOP('',(#1063,#1064,#1065,#1066));
#180=EDGE_LOOP('',(#1067,#1068,#1069,#1070));
#181=EDGE_LOOP('',(#1071,#1072,#1073,#1074));
#182=EDGE_LOOP('',(#1075,#1076,#1077,#1078));
#183=EDGE_LOOP('',(#1079,#1080,#1081,#1082));
#184=EDGE_LOOP('',(#1083,#1084,#1085,#1086));
#185=EDGE_LOOP('',(#1087,#1088,#1089,#1090));
#186=EDGE_LOOP('',(#1091,#1092,#1093,#1094));
#187=EDGE_LOOP('',(#1095,#1096,#1097,#1098));
#188=EDGE_LOOP('',(#1099,#1100,#1101,#1102));
#189=EDGE_LOOP('',(#1103,#1104,#1105,#1106));
#190=EDGE_LOOP('',(#1107,#1108,#1109,#1110));
#191=EDGE_LOOP('',(#1111,#1112,#1113,#1114));
#192=EDGE_LOOP('',(#1115,#1116,#1117,#1118));
#193=EDGE_LOOP('',(#1119,#1120,#1121,#1122));
#194=EDGE_LOOP('',(#1123,#1124,#1125,#1126));
#195=EDGE_LOOP('',(#1127,#1128,#1129,#1130));
#196=EDGE_LOOP('',(#1131,#1132,#1133,#1134,#1135,#1136,#1137,#1138,#1139,
#1140,#1141,#1142));
#197=EDGE_LOOP('',(#1143,#1144,#1145));
#198=EDGE_LOOP('',(#1146,#1147,#1148));
#199=EDGE_LOOP('',(#1149,#1150,#1151));
#200=EDGE_LOOP('',(#1152,#1153,#1154,#1155));
#201=EDGE_LOOP('',(#1156,#1157,#1158));
#202=EDGE_LOOP('',(#1159,#1160,#1161,#1162));
#203=EDGE_LOOP('',(#1163,#1164,#1165,#1166,#1167,#1168,#1169,#1170));
#204=EDGE_LOOP('',(#1171,#1172,#1173,#1174));
#205=EDGE_LOOP('',(#1175,#1176,#1177,#1178,#1179,#1180,#1181));
#206=EDGE_LOOP('',(#1182));
#207=EDGE_LOOP('',(#1183));
#208=EDGE_LOOP('',(#1184,#1185,#1186,#1187));
#209=EDGE_LOOP('',(#1188,#1189,#1190,#1191));
#210=EDGE_LOOP('',(#1192,#1193,#1194,#1195,#1196,#1197,#1198,#1199));
#211=EDGE_LOOP('',(#1200,#1201,#1202,#1203));
#212=EDGE_LOOP('',(#1204,#1205,#1206,#1207,#1208,#1209,#1210));
#213=EDGE_LOOP('',(#1211));
#214=EDGE_LOOP('',(#1212));
#215=LINE('',#1806,#345);
#216=LINE('',#1809,#346);
#217=LINE('',#1813,#347);
#218=LINE('',#1817,#348);
#219=LINE('',#1818,#349);
#220=LINE('',#1823,#350);
#221=LINE('',#1830,#351);
#222=LINE('',#1837,#352);
#223=LINE('',#1847,#353);
#224=LINE('',#1854,#354);
#225=LINE('',#1856,#355);
#226=LINE('',#1858,#356);
#227=LINE('',#1859,#357);
#228=LINE('',#1862,#358);
#229=LINE('',#1863,#359);
#230=LINE('',#1866,#360);
#231=LINE('',#1872,#361);
#232=LINE('',#1875,#362);
#233=LINE('',#1878,#363);
#234=LINE('',#1880,#364);
#235=LINE('',#1882,#365);
#236=LINE('',#1884,#366);
#237=LINE('',#1886,#367);
#238=LINE('',#1888,#368);
#239=LINE('',#1890,#369);
#240=LINE('',#1891,#370);
#241=LINE('',#1893,#371);
#242=LINE('',#1895,#372);
#243=LINE('',#1901,#373);
#244=LINE('',#1907,#374);
#245=LINE('',#1908,#375);
#246=LINE('',#1911,#376);
#247=LINE('',#1915,#377);
#248=LINE('',#1916,#378);
#249=LINE('',#1921,#379);
#250=LINE('',#1922,#380);
#251=LINE('',#1927,#381);
#252=LINE('',#1928,#382);
#253=LINE('',#1933,#383);
#254=LINE('',#1934,#384);
#255=LINE('',#1939,#385);
#256=LINE('',#1940,#386);
#257=LINE('',#1944,#387);
#258=LINE('',#1947,#388);
#259=LINE('',#1948,#389);
#260=LINE('',#1950,#390);
#261=LINE('',#1954,#391);
#262=LINE('',#1955,#392);
#263=LINE('',#1957,#393);
#264=LINE('',#1960,#394);
#265=LINE('',#1961,#395);
#266=LINE('',#1969,#396);
#267=LINE('',#1975,#397);
#268=LINE('',#1980,#398);
#269=LINE('',#1987,#399);
#270=LINE('',#1992,#400);
#271=LINE('',#1993,#401);
#272=LINE('',#1998,#402);
#273=LINE('',#1999,#403);
#274=LINE('',#2002,#404);
#275=LINE('',#2004,#405);
#276=LINE('',#2005,#406);
#277=LINE('',#2008,#407);
#278=LINE('',#2009,#408);
#279=LINE('',#2014,#409);
#280=LINE('',#2016,#410);
#281=LINE('',#2017,#411);
#282=LINE('',#2020,#412);
#283=LINE('',#2021,#413);
#284=LINE('',#2026,#414);
#285=LINE('',#2028,#415);
#286=LINE('',#2029,#416);
#287=LINE('',#2033,#417);
#288=LINE('',#2036,#418);
#289=LINE('',#2037,#419);
#290=LINE('',#2041,#420);
#291=LINE('',#2044,#421);
#292=LINE('',#2045,#422);
#293=LINE('',#2048,#423);
#294=LINE('',#2050,#424);
#295=LINE('',#2054,#425);
#296=LINE('',#2055,#426);
#297=LINE('',#2059,#427);
#298=LINE('',#2060,#428);
#299=LINE('',#2061,#429);
#300=LINE('',#2064,#430);
#301=LINE('',#2065,#431);
#302=LINE('',#2071,#432);
#303=LINE('',#2072,#433);
#304=LINE('',#2073,#434);
#305=LINE('',#2076,#435);
#306=LINE('',#2077,#436);
#307=LINE('',#2081,#437);
#308=LINE('',#2083,#438);
#309=LINE('',#2087,#439);
#310=LINE('',#2088,#440);
#311=LINE('',#2089,#441);
#312=LINE('',#2092,#442);
#313=LINE('',#2093,#443);
#314=LINE('',#2099,#444);
#315=LINE('',#2100,#445);
#316=LINE('',#2101,#446);
#317=LINE('',#2104,#447);
#318=LINE('',#2105,#448);
#319=LINE('',#2111,#449);
#320=LINE('',#2112,#450);
#321=LINE('',#2113,#451);
#322=LINE('',#2116,#452);
#323=LINE('',#2117,#453);
#324=LINE('',#2123,#454);
#325=LINE('',#2124,#455);
#326=LINE('',#2125,#456);
#327=LINE('',#2128,#457);
#328=LINE('',#2129,#458);
#329=LINE('',#2132,#459);
#330=LINE('',#2133,#460);
#331=LINE('',#2137,#461);
#332=LINE('',#2138,#462);
#333=LINE('',#2140,#463);
#334=LINE('',#2142,#464);
#335=LINE('',#2148,#465);
#336=LINE('',#2153,#466);
#337=LINE('',#2154,#467);
#338=LINE('',#2156,#468);
#339=LINE('',#2157,#469);
#340=LINE('',#2158,#470);
#341=LINE('',#2160,#471);
#342=LINE('',#2162,#472);
#343=LINE('',#2165,#473);
#344=LINE('',#2168,#474);
#345=VECTOR('',#1437,10.);
#346=VECTOR('',#1440,10.);
#347=VECTOR('',#1443,10.);
#348=VECTOR('',#1446,10.);
#349=VECTOR('',#1447,10.);
#350=VECTOR('',#1452,1.5);
#351=VECTOR('',#1461,1.5);
#352=VECTOR('',#1470,1.5);
#353=VECTOR('',#1481,1.5);
#354=VECTOR('',#1490,10.);
#355=VECTOR('',#1491,10.);
#356=VECTOR('',#1492,10.);
#357=VECTOR('',#1493,10.);
#358=VECTOR('',#1496,10.);
#359=VECTOR('',#1497,10.);
#360=VECTOR('',#1500,10.);
#361=VECTOR('',#1505,8.);
#362=VECTOR('',#1508,10.);
#363=VECTOR('',#1511,10.);
#364=VECTOR('',#1512,10.);
#365=VECTOR('',#1513,10.);
#366=VECTOR('',#1514,10.);
#367=VECTOR('',#1515,10.);
#368=VECTOR('',#1516,10.);
#369=VECTOR('',#1517,10.);
#370=VECTOR('',#1518,10.);
#371=VECTOR('',#1519,10.);
#372=VECTOR('',#1520,10.);
#373=VECTOR('',#1525,10.);
#374=VECTOR('',#1530,10.);
#375=VECTOR('',#1531,10.);
#376=VECTOR('',#1532,10.);
#377=VECTOR('',#1535,10.);
#378=VECTOR('',#1536,10.);
#379=VECTOR('',#1539,10.);
#380=VECTOR('',#1540,10.);
#381=VECTOR('',#1543,10.);
#382=VECTOR('',#1544,10.);
#383=VECTOR('',#1547,10.);
#384=VECTOR('',#1548,10.);
#385=VECTOR('',#1553,8.);
#386=VECTOR('',#1554,10.);
#387=VECTOR('',#1559,10.);
#388=VECTOR('',#1562,10.);
#389=VECTOR('',#1563,10.);
#390=VECTOR('',#1566,10.);
#391=VECTOR('',#1571,10.);
#392=VECTOR('',#1572,10.);
#393=VECTOR('',#1575,10.);
#394=VECTOR('',#1578,10.);
#395=VECTOR('',#1579,10.);
#396=VECTOR('',#1582,10.);
#397=VECTOR('',#1589,10.);
#398=VECTOR('',#1594,10.);
#399=VECTOR('',#1601,10.);
#400=VECTOR('',#1604,10.);
#401=VECTOR('',#1605,10.);
#402=VECTOR('',#1608,10.);
#403=VECTOR('',#1609,10.);
#404=VECTOR('',#1612,10.);
#405=VECTOR('',#1613,10.);
#406=VECTOR('',#1614,10.);
#407=VECTOR('',#1617,10.);
#408=VECTOR('',#1618,10.);
#409=VECTOR('',#1625,10.);
#410=VECTOR('',#1626,10.);
#411=VECTOR('',#1627,10.);
#412=VECTOR('',#1630,10.);
#413=VECTOR('',#1631,10.);
#414=VECTOR('',#1638,10.);
#415=VECTOR('',#1639,10.);
#416=VECTOR('',#1640,10.);
#417=VECTOR('',#1645,10.);
#418=VECTOR('',#1648,10.);
#419=VECTOR('',#1649,10.);
#420=VECTOR('',#1654,10.);
#421=VECTOR('',#1657,10.);
#422=VECTOR('',#1658,10.);
#423=VECTOR('',#1661,10.);
#424=VECTOR('',#1662,10.);
#425=VECTOR('',#1665,10.);
#426=VECTOR('',#1666,10.);
#427=VECTOR('',#1669,10.);
#428=VECTOR('',#1670,10.);
#429=VECTOR('',#1671,10.);
#430=VECTOR('',#1674,10.);
#431=VECTOR('',#1675,10.);
#432=VECTOR('',#1682,10.);
#433=VECTOR('',#1683,10.);
#434=VECTOR('',#1684,10.);
#435=VECTOR('',#1687,10.);
#436=VECTOR('',#1688,10.);
#437=VECTOR('',#1693,10.);
#438=VECTOR('',#1696,10.);
#439=VECTOR('',#1699,10.);
#440=VECTOR('',#1700,10.);
#441=VECTOR('',#1701,10.);
#442=VECTOR('',#1704,10.);
#443=VECTOR('',#1705,10.);
#444=VECTOR('',#1712,10.);
#445=VECTOR('',#1713,10.);
#446=VECTOR('',#1714,10.);
#447=VECTOR('',#1717,10.);
#448=VECTOR('',#1718,10.);
#449=VECTOR('',#1725,10.);
#450=VECTOR('',#1726,10.);
#451=VECTOR('',#1727,10.);
#452=VECTOR('',#1730,10.);
#453=VECTOR('',#1731,10.);
#454=VECTOR('',#1738,10.);
#455=VECTOR('',#1739,10.);
#456=VECTOR('',#1740,10.);
#457=VECTOR('',#1743,10.);
#458=VECTOR('',#1744,10.);
#459=VECTOR('',#1747,10.);
#460=VECTOR('',#1748,10.);
#461=VECTOR('',#1751,10.);
#462=VECTOR('',#1752,10.);
#463=VECTOR('',#1753,10.);
#464=VECTOR('',#1754,10.);
#465=VECTOR('',#1759,10.);
#466=VECTOR('',#1766,10.);
#467=VECTOR('',#1767,10.);
#468=VECTOR('',#1770,10.);
#469=VECTOR('',#1771,10.);
#470=VECTOR('',#1772,10.);
#471=VECTOR('',#1775,10.);
#472=VECTOR('',#1778,10.);
#473=VECTOR('',#1783,10.);
#474=VECTOR('',#1788,10.);
#475=ELLIPSE('',#1313,6.92820323027551,6.);
#476=ELLIPSE('',#1314,6.92820323027551,6.);
#477=ELLIPSE('',#1328,1.73205080756888,1.5);
#478=ELLIPSE('',#1329,1.73205080756888,1.5);
#479=ELLIPSE('',#1330,1.73205080756888,1.5);
#480=ELLIPSE('',#1333,1.73205080756888,1.5);
#481=ELLIPSE('',#1334,1.73205080756888,1.5);
#482=ELLIPSE('',#1335,1.73205080756888,1.5);
#483=ELLIPSE('',#1338,6.92820323027551,6.);
#484=ELLIPSE('',#1358,6.92820323027551,6.);
#485=CIRCLE('',#1312,6.);
#486=CIRCLE('',#1315,6.);
#487=CIRCLE('',#1317,6.);
#488=CIRCLE('',#1319,1.5);
#489=CIRCLE('',#1320,1.5);
#490=CIRCLE('',#1323,1.5);
#491=CIRCLE('',#1324,1.5);
#492=CIRCLE('',#1327,1.5);
#493=CIRCLE('',#1332,1.5);
#494=CIRCLE('',#1340,8.);
#495=CIRCLE('',#1341,8.);
#496=CIRCLE('',#1343,8.);
#497=CIRCLE('',#1344,14.065);
#498=CIRCLE('',#1345,14.065);
#499=CIRCLE('',#1346,1.075);
#500=CIRCLE('',#1347,1.075);
#501=CIRCLE('',#1348,2.5);
#502=CIRCLE('',#1349,1.075);
#503=CIRCLE('',#1350,1.075);
#504=CIRCLE('',#1352,8.);
#505=CIRCLE('',#1354,14.065);
#506=CIRCLE('',#1362,6.);
#507=CIRCLE('',#1364,18.5823802778899);
#508=CIRCLE('',#1365,18.5823802778892);
#509=CIRCLE('',#1366,14.065);
#510=CIRCLE('',#1367,1.5);
#511=CIRCLE('',#1368,11.065);
#512=CIRCLE('',#1369,1.5);
#513=CIRCLE('',#1370,2.55);
#514=CIRCLE('',#1371,2.55000000000505);
#515=CIRCLE('',#1375,2.55);
#516=CIRCLE('',#1379,2.55000000000505);
#517=CIRCLE('',#1382,18.5823802778899);
#518=CIRCLE('',#1385,18.5823802778892);
#519=CIRCLE('',#1388,11.065);
#520=CIRCLE('',#1392,1.075);
#521=CIRCLE('',#1396,1.075);
#522=CIRCLE('',#1401,2.5);
#523=CIRCLE('',#1405,1.075);
#524=CIRCLE('',#1409,1.075);
#525=CIRCLE('',#1414,11.065);
#526=CIRCLE('',#1415,1.5);
#527=CIRCLE('',#1416,1.5);
#528=CIRCLE('',#1417,11.065);
#529=B_SPLINE_CURVE_WITH_KNOTS('',3,(#1795,#1796,#1797,#1798),
 .UNSPECIFIED.,.F.,.F.,(4,4),(0.,0.219718054995883),.UNSPECIFIED.);
#530=B_SPLINE_CURVE_WITH_KNOTS('',3,(#1964,#1965,#1966,#1967),
 .UNSPECIFIED.,.F.,.F.,(4,4),(1.1501515329401,1.36986958793455),
 .UNSPECIFIED.);
#531=VERTEX_POINT('',#1793);
#532=VERTEX_POINT('',#1794);
#533=VERTEX_POINT('',#1799);
#534=VERTEX_POINT('',#1801);
#535=VERTEX_POINT('',#1803);
#536=VERTEX_POINT('',#1805);
#537=VERTEX_POINT('',#1807);
#538=VERTEX_POINT('',#1811);
#539=VERTEX_POINT('',#1812);
#540=VERTEX_POINT('',#1814);
#541=VERTEX_POINT('',#1816);
#542=VERTEX_POINT('',#1820);
#543=VERTEX_POINT('',#1822);
#544=VERTEX_POINT('',#1827);
#545=VERTEX_POINT('',#1829);
#546=VERTEX_POINT('',#1834);
#547=VERTEX_POINT('',#1836);
#548=VERTEX_POINT('',#1838);
#549=VERTEX_POINT('',#1840);
#550=VERTEX_POINT('',#1844);
#551=VERTEX_POINT('',#1846);
#552=VERTEX_POINT('',#1848);
#553=VERTEX_POINT('',#1850);
#554=VERTEX_POINT('',#1855);
#555=VERTEX_POINT('',#1857);
#556=VERTEX_POINT('',#1861);
#557=VERTEX_POINT('',#1864);
#558=VERTEX_POINT('',#1868);
#559=VERTEX_POINT('',#1869);
#560=VERTEX_POINT('',#1871);
#561=VERTEX_POINT('',#1873);
#562=VERTEX_POINT('',#1877);
#563=VERTEX_POINT('',#1879);
#564=VERTEX_POINT('',#1881);
#565=VERTEX_POINT('',#1883);
#566=VERTEX_POINT('',#1885);
#567=VERTEX_POINT('',#1887);
#568=VERTEX_POINT('',#1889);
#569=VERTEX_POINT('',#1892);
#570=VERTEX_POINT('',#1894);
#571=VERTEX_POINT('',#1896);
#572=VERTEX_POINT('',#1898);
#573=VERTEX_POINT('',#1900);
#574=VERTEX_POINT('',#1903);
#575=VERTEX_POINT('',#1904);
#576=VERTEX_POINT('',#1906);
#577=VERTEX_POINT('',#1909);
#578=VERTEX_POINT('',#1910);
#579=VERTEX_POINT('',#1912);
#580=VERTEX_POINT('',#1914);
#581=VERTEX_POINT('',#1917);
#582=VERTEX_POINT('',#1918);
#583=VERTEX_POINT('',#1920);
#584=VERTEX_POINT('',#1923);
#585=VERTEX_POINT('',#1924);
#586=VERTEX_POINT('',#1926);
#587=VERTEX_POINT('',#1929);
#588=VERTEX_POINT('',#1930);
#589=VERTEX_POINT('',#1932);
#590=VERTEX_POINT('',#1936);
#591=VERTEX_POINT('',#1937);
#592=VERTEX_POINT('',#1942);
#593=VERTEX_POINT('',#1946);
#594=VERTEX_POINT('',#1953);
#595=VERTEX_POINT('',#1959);
#596=VERTEX_POINT('',#1963);
#597=VERTEX_POINT('',#1968);
#598=VERTEX_POINT('',#1972);
#599=VERTEX_POINT('',#1974);
#600=VERTEX_POINT('',#1977);
#601=VERTEX_POINT('',#1979);
#602=VERTEX_POINT('',#1981);
#603=VERTEX_POINT('',#1983);
#604=VERTEX_POINT('',#1985);
#605=VERTEX_POINT('',#1988);
#606=VERTEX_POINT('',#1989);
#607=VERTEX_POINT('',#1991);
#608=VERTEX_POINT('',#1994);
#609=VERTEX_POINT('',#1995);
#610=VERTEX_POINT('',#1997);
#611=VERTEX_POINT('',#2001);
#612=VERTEX_POINT('',#2003);
#613=VERTEX_POINT('',#2007);
#614=VERTEX_POINT('',#2013);
#615=VERTEX_POINT('',#2015);
#616=VERTEX_POINT('',#2019);
#617=VERTEX_POINT('',#2025);
#618=VERTEX_POINT('',#2027);
#619=VERTEX_POINT('',#2031);
#620=VERTEX_POINT('',#2035);
#621=VERTEX_POINT('',#2039);
#622=VERTEX_POINT('',#2043);
#623=VERTEX_POINT('',#2047);
#624=VERTEX_POINT('',#2049);
#625=VERTEX_POINT('',#2051);
#626=VERTEX_POINT('',#2053);
#627=VERTEX_POINT('',#2057);
#628=VERTEX_POINT('',#2058);
#629=VERTEX_POINT('',#2063);
#630=VERTEX_POINT('',#2069);
#631=VERTEX_POINT('',#2070);
#632=VERTEX_POINT('',#2075);
#633=VERTEX_POINT('',#2079);
#634=VERTEX_POINT('',#2085);
#635=VERTEX_POINT('',#2086);
#636=VERTEX_POINT('',#2091);
#637=VERTEX_POINT('',#2097);
#638=VERTEX_POINT('',#2098);
#639=VERTEX_POINT('',#2103);
#640=VERTEX_POINT('',#2109);
#641=VERTEX_POINT('',#2110);
#642=VERTEX_POINT('',#2115);
#643=VERTEX_POINT('',#2121);
#644=VERTEX_POINT('',#2122);
#645=VERTEX_POINT('',#2127);
#646=VERTEX_POINT('',#2131);
#647=VERTEX_POINT('',#2135);
#648=VERTEX_POINT('',#2136);
#649=VERTEX_POINT('',#2139);
#650=VERTEX_POINT('',#2141);
#651=VERTEX_POINT('',#2143);
#652=VERTEX_POINT('',#2145);
#653=VERTEX_POINT('',#2147);
#654=VERTEX_POINT('',#2149);
#655=EDGE_CURVE('',#531,#532,#529,.T.);
#656=EDGE_CURVE('',#533,#532,#485,.T.);
#657=EDGE_CURVE('',#533,#534,#475,.T.);
#658=EDGE_CURVE('',#534,#535,#476,.T.);
#659=EDGE_CURVE('',#536,#535,#215,.T.);
#660=EDGE_CURVE('',#537,#536,#486,.T.);
#661=EDGE_CURVE('',#537,#531,#216,.T.);
#662=EDGE_CURVE('',#538,#539,#217,.T.);
#663=EDGE_CURVE('',#539,#540,#487,.T.);
#664=EDGE_CURVE('',#540,#541,#218,.T.);
#665=EDGE_CURVE('',#538,#541,#219,.T.);
#666=EDGE_CURVE('',#542,#542,#488,.T.);
#667=EDGE_CURVE('',#542,#543,#220,.T.);
#668=EDGE_CURVE('',#543,#543,#489,.T.);
#669=EDGE_CURVE('',#544,#544,#490,.T.);
#670=EDGE_CURVE('',#544,#545,#221,.T.);
#671=EDGE_CURVE('',#545,#545,#491,.T.);
#672=EDGE_CURVE('',#546,#546,#492,.T.);
#673=EDGE_CURVE('',#546,#547,#222,.T.);
#674=EDGE_CURVE('',#548,#547,#477,.T.);
#675=EDGE_CURVE('',#549,#548,#478,.T.);
#676=EDGE_CURVE('',#547,#549,#479,.T.);
#677=EDGE_CURVE('',#550,#550,#493,.T.);
#678=EDGE_CURVE('',#550,#551,#223,.T.);
#679=EDGE_CURVE('',#552,#551,#480,.T.);
#680=EDGE_CURVE('',#553,#552,#481,.T.);
#681=EDGE_CURVE('',#551,#553,#482,.T.);
#682=EDGE_CURVE('',#548,#534,#224,.T.);
#683=EDGE_CURVE('',#554,#533,#225,.T.);
#684=EDGE_CURVE('',#555,#554,#226,.T.);
#685=EDGE_CURVE('',#555,#549,#227,.T.);
#686=EDGE_CURVE('',#556,#553,#228,.T.);
#687=EDGE_CURVE('',#541,#556,#229,.T.);
#688=EDGE_CURVE('',#557,#540,#483,.T.);
#689=EDGE_CURVE('',#552,#557,#230,.T.);
#690=EDGE_CURVE('',#558,#559,#494,.T.);
#691=EDGE_CURVE('',#559,#560,#231,.T.);
#692=EDGE_CURVE('',#561,#560,#495,.T.);
#693=EDGE_CURVE('',#561,#558,#232,.T.);
#694=EDGE_CURVE('',#558,#562,#233,.T.);
#695=EDGE_CURVE('',#562,#563,#234,.T.);
#696=EDGE_CURVE('',#564,#563,#235,.T.);
#697=EDGE_CURVE('',#565,#564,#236,.T.);
#698=EDGE_CURVE('',#565,#566,#237,.T.);
#699=EDGE_CURVE('',#566,#567,#238,.T.);
#700=EDGE_CURVE('',#567,#568,#239,.T.);
#701=EDGE_CURVE('',#568,#536,#240,.T.);
#702=EDGE_CURVE('',#535,#569,#241,.T.);
#703=EDGE_CURVE('',#569,#570,#242,.T.);
#704=EDGE_CURVE('',#571,#570,#496,.T.);
#705=EDGE_CURVE('',#571,#572,#497,.T.);
#706=EDGE_CURVE('',#572,#573,#243,.T.);
#707=EDGE_CURVE('',#573,#559,#498,.T.);
#708=EDGE_CURVE('',#574,#575,#499,.T.);
#709=EDGE_CURVE('',#575,#576,#244,.T.);
#710=EDGE_CURVE('',#576,#574,#245,.T.);
#711=EDGE_CURVE('',#577,#578,#246,.T.);
#712=EDGE_CURVE('',#578,#579,#500,.T.);
#713=EDGE_CURVE('',#579,#580,#247,.T.);
#714=EDGE_CURVE('',#580,#577,#248,.T.);
#715=EDGE_CURVE('',#581,#582,#501,.T.);
#716=EDGE_CURVE('',#582,#583,#249,.T.);
#717=EDGE_CURVE('',#583,#581,#250,.T.);
#718=EDGE_CURVE('',#584,#585,#502,.T.);
#719=EDGE_CURVE('',#585,#586,#251,.T.);
#720=EDGE_CURVE('',#586,#584,#252,.T.);
#721=EDGE_CURVE('',#587,#588,#503,.T.);
#722=EDGE_CURVE('',#588,#589,#253,.T.);
#723=EDGE_CURVE('',#589,#587,#254,.T.);
#724=EDGE_CURVE('',#590,#591,#504,.F.);
#725=EDGE_CURVE('',#591,#571,#255,.T.);
#726=EDGE_CURVE('',#590,#570,#256,.T.);
#727=EDGE_CURVE('',#592,#591,#505,.T.);
#728=EDGE_CURVE('',#592,#572,#257,.T.);
#729=EDGE_CURVE('',#593,#555,#258,.T.);
#730=EDGE_CURVE('',#593,#569,#259,.T.);
#731=EDGE_CURVE('',#590,#593,#260,.T.);
#732=EDGE_CURVE('',#563,#557,#484,.T.);
#733=EDGE_CURVE('',#594,#562,#261,.T.);
#734=EDGE_CURVE('',#556,#594,#262,.T.);
#735=EDGE_CURVE('',#594,#561,#263,.T.);
#736=EDGE_CURVE('',#532,#595,#264,.T.);
#737=EDGE_CURVE('',#554,#595,#265,.T.);
#738=EDGE_CURVE('',#539,#596,#530,.T.);
#739=EDGE_CURVE('',#597,#596,#266,.T.);
#740=EDGE_CURVE('',#564,#597,#506,.T.);
#741=EDGE_CURVE('',#598,#595,#507,.T.);
#742=EDGE_CURVE('',#598,#599,#267,.T.);
#743=EDGE_CURVE('',#538,#599,#508,.T.);
#744=EDGE_CURVE('',#560,#600,#509,.T.);
#745=EDGE_CURVE('',#600,#601,#268,.T.);
#746=EDGE_CURVE('',#602,#601,#510,.T.);
#747=EDGE_CURVE('',#602,#603,#511,.T.);
#748=EDGE_CURVE('',#604,#603,#512,.T.);
#749=EDGE_CURVE('',#604,#592,#269,.T.);
#750=EDGE_CURVE('',#605,#606,#513,.T.);
#751=EDGE_CURVE('',#607,#605,#270,.T.);
#752=EDGE_CURVE('',#606,#607,#271,.T.);
#753=EDGE_CURVE('',#608,#609,#514,.T.);
#754=EDGE_CURVE('',#610,#608,#272,.T.);
#755=EDGE_CURVE('',#609,#610,#273,.T.);
#756=EDGE_CURVE('',#605,#611,#274,.T.);
#757=EDGE_CURVE('',#612,#611,#275,.T.);
#758=EDGE_CURVE('',#607,#612,#276,.T.);
#759=EDGE_CURVE('',#613,#612,#277,.T.);
#760=EDGE_CURVE('',#606,#613,#278,.T.);
#761=EDGE_CURVE('',#611,#613,#515,.T.);
#762=EDGE_CURVE('',#608,#614,#279,.T.);
#763=EDGE_CURVE('',#615,#614,#280,.T.);
#764=EDGE_CURVE('',#610,#615,#281,.T.);
#765=EDGE_CURVE('',#616,#615,#282,.T.);
#766=EDGE_CURVE('',#609,#616,#283,.T.);
#767=EDGE_CURVE('',#614,#616,#516,.T.);
#768=EDGE_CURVE('',#531,#617,#284,.T.);
#769=EDGE_CURVE('',#618,#537,#285,.T.);
#770=EDGE_CURVE('',#617,#618,#286,.T.);
#771=EDGE_CURVE('',#619,#617,#517,.T.);
#772=EDGE_CURVE('',#598,#619,#287,.T.);
#773=EDGE_CURVE('',#620,#619,#288,.T.);
#774=EDGE_CURVE('',#599,#620,#289,.T.);
#775=EDGE_CURVE('',#621,#620,#518,.T.);
#776=EDGE_CURVE('',#596,#621,#290,.T.);
#777=EDGE_CURVE('',#622,#621,#291,.T.);
#778=EDGE_CURVE('',#597,#622,#292,.T.);
#779=EDGE_CURVE('',#618,#623,#293,.T.);
#780=EDGE_CURVE('',#623,#624,#294,.T.);
#781=EDGE_CURVE('',#624,#625,#519,.T.);
#782=EDGE_CURVE('',#625,#626,#295,.T.);
#783=EDGE_CURVE('',#626,#622,#296,.T.);
#784=EDGE_CURVE('',#627,#628,#297,.T.);
#785=EDGE_CURVE('',#627,#574,#298,.T.);
#786=EDGE_CURVE('',#628,#576,#299,.T.);
#787=EDGE_CURVE('',#628,#629,#300,.T.);
#788=EDGE_CURVE('',#629,#575,#301,.T.);
#789=EDGE_CURVE('',#629,#627,#520,.T.);
#790=EDGE_CURVE('',#630,#631,#302,.T.);
#791=EDGE_CURVE('',#630,#577,#303,.T.);
#792=EDGE_CURVE('',#631,#580,#304,.T.);
#793=EDGE_CURVE('',#631,#632,#305,.T.);
#794=EDGE_CURVE('',#632,#579,#306,.T.);
#795=EDGE_CURVE('',#632,#633,#521,.T.);
#796=EDGE_CURVE('',#633,#578,#307,.T.);
#797=EDGE_CURVE('',#633,#630,#308,.T.);
#798=EDGE_CURVE('',#634,#635,#309,.T.);
#799=EDGE_CURVE('',#634,#581,#310,.T.);
#800=EDGE_CURVE('',#635,#583,#311,.T.);
#801=EDGE_CURVE('',#635,#636,#312,.T.);
#802=EDGE_CURVE('',#636,#582,#313,.T.);
#803=EDGE_CURVE('',#636,#634,#522,.T.);
#804=EDGE_CURVE('',#637,#638,#314,.T.);
#805=EDGE_CURVE('',#637,#584,#315,.T.);
#806=EDGE_CURVE('',#638,#586,#316,.T.);
#807=EDGE_CURVE('',#638,#639,#317,.T.);
#808=EDGE_CURVE('',#639,#585,#318,.T.);
#809=EDGE_CURVE('',#639,#637,#523,.T.);
#810=EDGE_CURVE('',#640,#641,#319,.T.);
#811=EDGE_CURVE('',#640,#587,#320,.T.);
#812=EDGE_CURVE('',#641,#589,#321,.T.);
#813=EDGE_CURVE('',#641,#642,#322,.T.);
#814=EDGE_CURVE('',#642,#588,#323,.T.);
#815=EDGE_CURVE('',#642,#640,#524,.T.);
#816=EDGE_CURVE('',#643,#644,#324,.T.);
#817=EDGE_CURVE('',#644,#568,#325,.T.);
#818=EDGE_CURVE('',#643,#567,#326,.T.);
#819=EDGE_CURVE('',#645,#643,#327,.T.);
#820=EDGE_CURVE('',#645,#566,#328,.T.);
#821=EDGE_CURVE('',#646,#645,#329,.T.);
#822=EDGE_CURVE('',#646,#565,#330,.T.);
#823=EDGE_CURVE('',#647,#648,#331,.T.);
#824=EDGE_CURVE('',#644,#648,#332,.T.);
#825=EDGE_CURVE('',#649,#646,#333,.T.);
#826=EDGE_CURVE('',#650,#649,#334,.T.);
#827=EDGE_CURVE('',#650,#651,#525,.T.);
#828=EDGE_CURVE('',#652,#651,#526,.T.);
#829=EDGE_CURVE('',#653,#652,#335,.T.);
#830=EDGE_CURVE('',#654,#653,#527,.T.);
#831=EDGE_CURVE('',#654,#647,#528,.T.);
#832=EDGE_CURVE('',#601,#652,#336,.T.);
#833=EDGE_CURVE('',#651,#602,#337,.T.);
#834=EDGE_CURVE('',#650,#625,#338,.T.);
#835=EDGE_CURVE('',#647,#624,#339,.T.);
#836=EDGE_CURVE('',#603,#654,#340,.T.);
#837=EDGE_CURVE('',#573,#600,#341,.T.);
#838=EDGE_CURVE('',#649,#626,#342,.T.);
#839=EDGE_CURVE('',#653,#604,#343,.T.);
#840=EDGE_CURVE('',#648,#623,#344,.T.);
#841=ORIENTED_EDGE('',*,*,#655,.T.);
#842=ORIENTED_EDGE('',*,*,#656,.F.);
#843=ORIENTED_EDGE('',*,*,#657,.T.);
#844=ORIENTED_EDGE('',*,*,#658,.T.);
#845=ORIENTED_EDGE('',*,*,#659,.F.);
#846=ORIENTED_EDGE('',*,*,#660,.F.);
#847=ORIENTED_EDGE('',*,*,#661,.T.);
#848=ORIENTED_EDGE('',*,*,#662,.T.);
#849=ORIENTED_EDGE('',*,*,#663,.T.);
#850=ORIENTED_EDGE('',*,*,#664,.T.);
#851=ORIENTED_EDGE('',*,*,#665,.F.);
#852=ORIENTED_EDGE('',*,*,#666,.F.);
#853=ORIENTED_EDGE('',*,*,#667,.T.);
#854=ORIENTED_EDGE('',*,*,#668,.T.);
#855=ORIENTED_EDGE('',*,*,#667,.F.);
#856=ORIENTED_EDGE('',*,*,#668,.F.);
#857=ORIENTED_EDGE('',*,*,#669,.F.);
#858=ORIENTED_EDGE('',*,*,#670,.T.);
#859=ORIENTED_EDGE('',*,*,#671,.T.);
#860=ORIENTED_EDGE('',*,*,#670,.F.);
#861=ORIENTED_EDGE('',*,*,#671,.F.);
#862=ORIENTED_EDGE('',*,*,#672,.F.);
#863=ORIENTED_EDGE('',*,*,#673,.T.);
#864=ORIENTED_EDGE('',*,*,#674,.F.);
#865=ORIENTED_EDGE('',*,*,#675,.F.);
#866=ORIENTED_EDGE('',*,*,#676,.F.);
#867=ORIENTED_EDGE('',*,*,#673,.F.);
#868=ORIENTED_EDGE('',*,*,#677,.F.);
#869=ORIENTED_EDGE('',*,*,#678,.T.);
#870=ORIENTED_EDGE('',*,*,#679,.F.);
#871=ORIENTED_EDGE('',*,*,#680,.F.);
#872=ORIENTED_EDGE('',*,*,#681,.F.);
#873=ORIENTED_EDGE('',*,*,#678,.F.);
#874=ORIENTED_EDGE('',*,*,#675,.T.);
#875=ORIENTED_EDGE('',*,*,#682,.T.);
#876=ORIENTED_EDGE('',*,*,#657,.F.);
#877=ORIENTED_EDGE('',*,*,#683,.F.);
#878=ORIENTED_EDGE('',*,*,#684,.F.);
#879=ORIENTED_EDGE('',*,*,#685,.T.);
#880=ORIENTED_EDGE('',*,*,#679,.T.);
#881=ORIENTED_EDGE('',*,*,#681,.T.);
#882=ORIENTED_EDGE('',*,*,#686,.F.);
#883=ORIENTED_EDGE('',*,*,#687,.F.);
#884=ORIENTED_EDGE('',*,*,#664,.F.);
#885=ORIENTED_EDGE('',*,*,#688,.F.);
#886=ORIENTED_EDGE('',*,*,#689,.F.);
#887=ORIENTED_EDGE('',*,*,#690,.T.);
#888=ORIENTED_EDGE('',*,*,#691,.T.);
#889=ORIENTED_EDGE('',*,*,#692,.F.);
#890=ORIENTED_EDGE('',*,*,#693,.T.);
#891=ORIENTED_EDGE('',*,*,#690,.F.);
#892=ORIENTED_EDGE('',*,*,#694,.T.);
#893=ORIENTED_EDGE('',*,*,#695,.T.);
#894=ORIENTED_EDGE('',*,*,#696,.F.);
#895=ORIENTED_EDGE('',*,*,#697,.F.);
#896=ORIENTED_EDGE('',*,*,#698,.T.);
#897=ORIENTED_EDGE('',*,*,#699,.T.);
#898=ORIENTED_EDGE('',*,*,#700,.T.);
#899=ORIENTED_EDGE('',*,*,#701,.T.);
#900=ORIENTED_EDGE('',*,*,#659,.T.);
#901=ORIENTED_EDGE('',*,*,#702,.T.);
#902=ORIENTED_EDGE('',*,*,#703,.T.);
#903=ORIENTED_EDGE('',*,*,#704,.F.);
#904=ORIENTED_EDGE('',*,*,#705,.T.);
#905=ORIENTED_EDGE('',*,*,#706,.T.);
#906=ORIENTED_EDGE('',*,*,#707,.T.);
#907=ORIENTED_EDGE('',*,*,#708,.T.);
#908=ORIENTED_EDGE('',*,*,#709,.T.);
#909=ORIENTED_EDGE('',*,*,#710,.T.);
#910=ORIENTED_EDGE('',*,*,#711,.T.);
#911=ORIENTED_EDGE('',*,*,#712,.T.);
#912=ORIENTED_EDGE('',*,*,#713,.T.);
#913=ORIENTED_EDGE('',*,*,#714,.T.);
#914=ORIENTED_EDGE('',*,*,#715,.T.);
#915=ORIENTED_EDGE('',*,*,#716,.T.);
#916=ORIENTED_EDGE('',*,*,#717,.T.);
#917=ORIENTED_EDGE('',*,*,#718,.T.);
#918=ORIENTED_EDGE('',*,*,#719,.T.);
#919=ORIENTED_EDGE('',*,*,#720,.T.);
#920=ORIENTED_EDGE('',*,*,#721,.T.);
#921=ORIENTED_EDGE('',*,*,#722,.T.);
#922=ORIENTED_EDGE('',*,*,#723,.T.);
#923=ORIENTED_EDGE('',*,*,#724,.T.);
#924=ORIENTED_EDGE('',*,*,#725,.T.);
#925=ORIENTED_EDGE('',*,*,#704,.T.);
#926=ORIENTED_EDGE('',*,*,#726,.F.);
#927=ORIENTED_EDGE('',*,*,#725,.F.);
#928=ORIENTED_EDGE('',*,*,#727,.F.);
#929=ORIENTED_EDGE('',*,*,#728,.T.);
#930=ORIENTED_EDGE('',*,*,#705,.F.);
#931=ORIENTED_EDGE('',*,*,#674,.T.);
#932=ORIENTED_EDGE('',*,*,#676,.T.);
#933=ORIENTED_EDGE('',*,*,#685,.F.);
#934=ORIENTED_EDGE('',*,*,#729,.F.);
#935=ORIENTED_EDGE('',*,*,#730,.T.);
#936=ORIENTED_EDGE('',*,*,#702,.F.);
#937=ORIENTED_EDGE('',*,*,#658,.F.);
#938=ORIENTED_EDGE('',*,*,#682,.F.);
#939=ORIENTED_EDGE('',*,*,#703,.F.);
#940=ORIENTED_EDGE('',*,*,#730,.F.);
#941=ORIENTED_EDGE('',*,*,#731,.F.);
#942=ORIENTED_EDGE('',*,*,#726,.T.);
#943=ORIENTED_EDGE('',*,*,#680,.T.);
#944=ORIENTED_EDGE('',*,*,#689,.T.);
#945=ORIENTED_EDGE('',*,*,#732,.F.);
#946=ORIENTED_EDGE('',*,*,#695,.F.);
#947=ORIENTED_EDGE('',*,*,#733,.F.);
#948=ORIENTED_EDGE('',*,*,#734,.F.);
#949=ORIENTED_EDGE('',*,*,#686,.T.);
#950=ORIENTED_EDGE('',*,*,#694,.F.);
#951=ORIENTED_EDGE('',*,*,#693,.F.);
#952=ORIENTED_EDGE('',*,*,#735,.F.);
#953=ORIENTED_EDGE('',*,*,#733,.T.);
#954=ORIENTED_EDGE('',*,*,#736,.T.);
#955=ORIENTED_EDGE('',*,*,#737,.F.);
#956=ORIENTED_EDGE('',*,*,#683,.T.);
#957=ORIENTED_EDGE('',*,*,#656,.T.);
#958=ORIENTED_EDGE('',*,*,#738,.T.);
#959=ORIENTED_EDGE('',*,*,#739,.F.);
#960=ORIENTED_EDGE('',*,*,#740,.F.);
#961=ORIENTED_EDGE('',*,*,#696,.T.);
#962=ORIENTED_EDGE('',*,*,#732,.T.);
#963=ORIENTED_EDGE('',*,*,#688,.T.);
#964=ORIENTED_EDGE('',*,*,#663,.F.);
#965=ORIENTED_EDGE('',*,*,#731,.T.);
#966=ORIENTED_EDGE('',*,*,#729,.T.);
#967=ORIENTED_EDGE('',*,*,#684,.T.);
#968=ORIENTED_EDGE('',*,*,#737,.T.);
#969=ORIENTED_EDGE('',*,*,#741,.F.);
#970=ORIENTED_EDGE('',*,*,#742,.T.);
#971=ORIENTED_EDGE('',*,*,#743,.F.);
#972=ORIENTED_EDGE('',*,*,#665,.T.);
#973=ORIENTED_EDGE('',*,*,#687,.T.);
#974=ORIENTED_EDGE('',*,*,#734,.T.);
#975=ORIENTED_EDGE('',*,*,#735,.T.);
#976=ORIENTED_EDGE('',*,*,#692,.T.);
#977=ORIENTED_EDGE('',*,*,#744,.T.);
#978=ORIENTED_EDGE('',*,*,#745,.T.);
#979=ORIENTED_EDGE('',*,*,#746,.F.);
#980=ORIENTED_EDGE('',*,*,#747,.T.);
#981=ORIENTED_EDGE('',*,*,#748,.F.);
#982=ORIENTED_EDGE('',*,*,#749,.T.);
#983=ORIENTED_EDGE('',*,*,#727,.T.);
#984=ORIENTED_EDGE('',*,*,#724,.F.);
#985=ORIENTED_EDGE('',*,*,#750,.F.);
#986=ORIENTED_EDGE('',*,*,#751,.F.);
#987=ORIENTED_EDGE('',*,*,#752,.F.);
#988=ORIENTED_EDGE('',*,*,#753,.F.);
#989=ORIENTED_EDGE('',*,*,#754,.F.);
#990=ORIENTED_EDGE('',*,*,#755,.F.);
#991=ORIENTED_EDGE('',*,*,#751,.T.);
#992=ORIENTED_EDGE('',*,*,#756,.T.);
#993=ORIENTED_EDGE('',*,*,#757,.F.);
#994=ORIENTED_EDGE('',*,*,#758,.F.);
#995=ORIENTED_EDGE('',*,*,#752,.T.);
#996=ORIENTED_EDGE('',*,*,#758,.T.);
#997=ORIENTED_EDGE('',*,*,#759,.F.);
#998=ORIENTED_EDGE('',*,*,#760,.F.);
#999=ORIENTED_EDGE('',*,*,#750,.T.);
#1000=ORIENTED_EDGE('',*,*,#760,.T.);
#1001=ORIENTED_EDGE('',*,*,#761,.F.);
#1002=ORIENTED_EDGE('',*,*,#756,.F.);
#1003=ORIENTED_EDGE('',*,*,#754,.T.);
#1004=ORIENTED_EDGE('',*,*,#762,.T.);
#1005=ORIENTED_EDGE('',*,*,#763,.F.);
#1006=ORIENTED_EDGE('',*,*,#764,.F.);
#1007=ORIENTED_EDGE('',*,*,#755,.T.);
#1008=ORIENTED_EDGE('',*,*,#764,.T.);
#1009=ORIENTED_EDGE('',*,*,#765,.F.);
#1010=ORIENTED_EDGE('',*,*,#766,.F.);
#1011=ORIENTED_EDGE('',*,*,#753,.T.);
#1012=ORIENTED_EDGE('',*,*,#766,.T.);
#1013=ORIENTED_EDGE('',*,*,#767,.F.);
#1014=ORIENTED_EDGE('',*,*,#762,.F.);
#1015=ORIENTED_EDGE('',*,*,#768,.F.);
#1016=ORIENTED_EDGE('',*,*,#661,.F.);
#1017=ORIENTED_EDGE('',*,*,#769,.F.);
#1018=ORIENTED_EDGE('',*,*,#770,.F.);
#1019=ORIENTED_EDGE('',*,*,#741,.T.);
#1020=ORIENTED_EDGE('',*,*,#736,.F.);
#1021=ORIENTED_EDGE('',*,*,#655,.F.);
#1022=ORIENTED_EDGE('',*,*,#768,.T.);
#1023=ORIENTED_EDGE('',*,*,#771,.F.);
#1024=ORIENTED_EDGE('',*,*,#772,.F.);
#1025=ORIENTED_EDGE('',*,*,#742,.F.);
#1026=ORIENTED_EDGE('',*,*,#772,.T.);
#1027=ORIENTED_EDGE('',*,*,#773,.F.);
#1028=ORIENTED_EDGE('',*,*,#774,.F.);
#1029=ORIENTED_EDGE('',*,*,#743,.T.);
#1030=ORIENTED_EDGE('',*,*,#774,.T.);
#1031=ORIENTED_EDGE('',*,*,#775,.F.);
#1032=ORIENTED_EDGE('',*,*,#776,.F.);
#1033=ORIENTED_EDGE('',*,*,#738,.F.);
#1034=ORIENTED_EDGE('',*,*,#662,.F.);
#1035=ORIENTED_EDGE('',*,*,#776,.T.);
#1036=ORIENTED_EDGE('',*,*,#777,.F.);
#1037=ORIENTED_EDGE('',*,*,#778,.F.);
#1038=ORIENTED_EDGE('',*,*,#739,.T.);
#1039=ORIENTED_EDGE('',*,*,#779,.T.);
#1040=ORIENTED_EDGE('',*,*,#780,.T.);
#1041=ORIENTED_EDGE('',*,*,#781,.T.);
#1042=ORIENTED_EDGE('',*,*,#782,.T.);
#1043=ORIENTED_EDGE('',*,*,#783,.T.);
#1044=ORIENTED_EDGE('',*,*,#777,.T.);
#1045=ORIENTED_EDGE('',*,*,#775,.T.);
#1046=ORIENTED_EDGE('',*,*,#773,.T.);
#1047=ORIENTED_EDGE('',*,*,#771,.T.);
#1048=ORIENTED_EDGE('',*,*,#770,.T.);
#1049=ORIENTED_EDGE('',*,*,#767,.T.);
#1050=ORIENTED_EDGE('',*,*,#765,.T.);
#1051=ORIENTED_EDGE('',*,*,#763,.T.);
#1052=ORIENTED_EDGE('',*,*,#761,.T.);
#1053=ORIENTED_EDGE('',*,*,#759,.T.);
#1054=ORIENTED_EDGE('',*,*,#757,.T.);
#1055=ORIENTED_EDGE('',*,*,#784,.F.);
#1056=ORIENTED_EDGE('',*,*,#785,.T.);
#1057=ORIENTED_EDGE('',*,*,#710,.F.);
#1058=ORIENTED_EDGE('',*,*,#786,.F.);
#1059=ORIENTED_EDGE('',*,*,#787,.F.);
#1060=ORIENTED_EDGE('',*,*,#786,.T.);
#1061=ORIENTED_EDGE('',*,*,#709,.F.);
#1062=ORIENTED_EDGE('',*,*,#788,.F.);
#1063=ORIENTED_EDGE('',*,*,#789,.F.);
#1064=ORIENTED_EDGE('',*,*,#788,.T.);
#1065=ORIENTED_EDGE('',*,*,#708,.F.);
#1066=ORIENTED_EDGE('',*,*,#785,.F.);
#1067=ORIENTED_EDGE('',*,*,#790,.F.);
#1068=ORIENTED_EDGE('',*,*,#791,.T.);
#1069=ORIENTED_EDGE('',*,*,#714,.F.);
#1070=ORIENTED_EDGE('',*,*,#792,.F.);
#1071=ORIENTED_EDGE('',*,*,#793,.F.);
#1072=ORIENTED_EDGE('',*,*,#792,.T.);
#1073=ORIENTED_EDGE('',*,*,#713,.F.);
#1074=ORIENTED_EDGE('',*,*,#794,.F.);
#1075=ORIENTED_EDGE('',*,*,#795,.F.);
#1076=ORIENTED_EDGE('',*,*,#794,.T.);
#1077=ORIENTED_EDGE('',*,*,#712,.F.);
#1078=ORIENTED_EDGE('',*,*,#796,.F.);
#1079=ORIENTED_EDGE('',*,*,#797,.F.);
#1080=ORIENTED_EDGE('',*,*,#796,.T.);
#1081=ORIENTED_EDGE('',*,*,#711,.F.);
#1082=ORIENTED_EDGE('',*,*,#791,.F.);
#1083=ORIENTED_EDGE('',*,*,#798,.F.);
#1084=ORIENTED_EDGE('',*,*,#799,.T.);
#1085=ORIENTED_EDGE('',*,*,#717,.F.);
#1086=ORIENTED_EDGE('',*,*,#800,.F.);
#1087=ORIENTED_EDGE('',*,*,#801,.F.);
#1088=ORIENTED_EDGE('',*,*,#800,.T.);
#1089=ORIENTED_EDGE('',*,*,#716,.F.);
#1090=ORIENTED_EDGE('',*,*,#802,.F.);
#1091=ORIENTED_EDGE('',*,*,#803,.F.);
#1092=ORIENTED_EDGE('',*,*,#802,.T.);
#1093=ORIENTED_EDGE('',*,*,#715,.F.);
#1094=ORIENTED_EDGE('',*,*,#799,.F.);
#1095=ORIENTED_EDGE('',*,*,#804,.F.);
#1096=ORIENTED_EDGE('',*,*,#805,.T.);
#1097=ORIENTED_EDGE('',*,*,#720,.F.);
#1098=ORIENTED_EDGE('',*,*,#806,.F.);
#1099=ORIENTED_EDGE('',*,*,#807,.F.);
#1100=ORIENTED_EDGE('',*,*,#806,.T.);
#1101=ORIENTED_EDGE('',*,*,#719,.F.);
#1102=ORIENTED_EDGE('',*,*,#808,.F.);
#1103=ORIENTED_EDGE('',*,*,#809,.F.);
#1104=ORIENTED_EDGE('',*,*,#808,.T.);
#1105=ORIENTED_EDGE('',*,*,#718,.F.);
#1106=ORIENTED_EDGE('',*,*,#805,.F.);
#1107=ORIENTED_EDGE('',*,*,#810,.F.);
#1108=ORIENTED_EDGE('',*,*,#811,.T.);
#1109=ORIENTED_EDGE('',*,*,#723,.F.);
#1110=ORIENTED_EDGE('',*,*,#812,.F.);
#1111=ORIENTED_EDGE('',*,*,#813,.F.);
#1112=ORIENTED_EDGE('',*,*,#812,.T.);
#1113=ORIENTED_EDGE('',*,*,#722,.F.);
#1114=ORIENTED_EDGE('',*,*,#814,.F.);
#1115=ORIENTED_EDGE('',*,*,#815,.F.);
#1116=ORIENTED_EDGE('',*,*,#814,.T.);
#1117=ORIENTED_EDGE('',*,*,#721,.F.);
#1118=ORIENTED_EDGE('',*,*,#811,.F.);
#1119=ORIENTED_EDGE('',*,*,#816,.T.);
#1120=ORIENTED_EDGE('',*,*,#817,.T.);
#1121=ORIENTED_EDGE('',*,*,#700,.F.);
#1122=ORIENTED_EDGE('',*,*,#818,.F.);
#1123=ORIENTED_EDGE('',*,*,#819,.T.);
#1124=ORIENTED_EDGE('',*,*,#818,.T.);
#1125=ORIENTED_EDGE('',*,*,#699,.F.);
#1126=ORIENTED_EDGE('',*,*,#820,.F.);
#1127=ORIENTED_EDGE('',*,*,#821,.T.);
#1128=ORIENTED_EDGE('',*,*,#820,.T.);
#1129=ORIENTED_EDGE('',*,*,#698,.F.);
#1130=ORIENTED_EDGE('',*,*,#822,.F.);
#1131=ORIENTED_EDGE('',*,*,#823,.T.);
#1132=ORIENTED_EDGE('',*,*,#824,.F.);
#1133=ORIENTED_EDGE('',*,*,#816,.F.);
#1134=ORIENTED_EDGE('',*,*,#819,.F.);
#1135=ORIENTED_EDGE('',*,*,#821,.F.);
#1136=ORIENTED_EDGE('',*,*,#825,.F.);
#1137=ORIENTED_EDGE('',*,*,#826,.F.);
#1138=ORIENTED_EDGE('',*,*,#827,.T.);
#1139=ORIENTED_EDGE('',*,*,#828,.F.);
#1140=ORIENTED_EDGE('',*,*,#829,.F.);
#1141=ORIENTED_EDGE('',*,*,#830,.F.);
#1142=ORIENTED_EDGE('',*,*,#831,.T.);
#1143=ORIENTED_EDGE('',*,*,#815,.T.);
#1144=ORIENTED_EDGE('',*,*,#810,.T.);
#1145=ORIENTED_EDGE('',*,*,#813,.T.);
#1146=ORIENTED_EDGE('',*,*,#809,.T.);
#1147=ORIENTED_EDGE('',*,*,#804,.T.);
#1148=ORIENTED_EDGE('',*,*,#807,.T.);
#1149=ORIENTED_EDGE('',*,*,#803,.T.);
#1150=ORIENTED_EDGE('',*,*,#798,.T.);
#1151=ORIENTED_EDGE('',*,*,#801,.T.);
#1152=ORIENTED_EDGE('',*,*,#797,.T.);
#1153=ORIENTED_EDGE('',*,*,#790,.T.);
#1154=ORIENTED_EDGE('',*,*,#793,.T.);
#1155=ORIENTED_EDGE('',*,*,#795,.T.);
#1156=ORIENTED_EDGE('',*,*,#789,.T.);
#1157=ORIENTED_EDGE('',*,*,#784,.T.);
#1158=ORIENTED_EDGE('',*,*,#787,.T.);
#1159=ORIENTED_EDGE('',*,*,#746,.T.);
#1160=ORIENTED_EDGE('',*,*,#832,.T.);
#1161=ORIENTED_EDGE('',*,*,#828,.T.);
#1162=ORIENTED_EDGE('',*,*,#833,.T.);
#1163=ORIENTED_EDGE('',*,*,#833,.F.);
#1164=ORIENTED_EDGE('',*,*,#827,.F.);
#1165=ORIENTED_EDGE('',*,*,#834,.T.);
#1166=ORIENTED_EDGE('',*,*,#781,.F.);
#1167=ORIENTED_EDGE('',*,*,#835,.F.);
#1168=ORIENTED_EDGE('',*,*,#831,.F.);
#1169=ORIENTED_EDGE('',*,*,#836,.F.);
#1170=ORIENTED_EDGE('',*,*,#747,.F.);
#1171=ORIENTED_EDGE('',*,*,#691,.F.);
#1172=ORIENTED_EDGE('',*,*,#707,.F.);
#1173=ORIENTED_EDGE('',*,*,#837,.T.);
#1174=ORIENTED_EDGE('',*,*,#744,.F.);
#1175=ORIENTED_EDGE('',*,*,#778,.T.);
#1176=ORIENTED_EDGE('',*,*,#783,.F.);
#1177=ORIENTED_EDGE('',*,*,#838,.F.);
#1178=ORIENTED_EDGE('',*,*,#825,.T.);
#1179=ORIENTED_EDGE('',*,*,#822,.T.);
#1180=ORIENTED_EDGE('',*,*,#697,.T.);
#1181=ORIENTED_EDGE('',*,*,#740,.T.);
#1182=ORIENTED_EDGE('',*,*,#669,.T.);
#1183=ORIENTED_EDGE('',*,*,#677,.T.);
#1184=ORIENTED_EDGE('',*,*,#826,.T.);
#1185=ORIENTED_EDGE('',*,*,#838,.T.);
#1186=ORIENTED_EDGE('',*,*,#782,.F.);
#1187=ORIENTED_EDGE('',*,*,#834,.F.);
#1188=ORIENTED_EDGE('',*,*,#748,.T.);
#1189=ORIENTED_EDGE('',*,*,#836,.T.);
#1190=ORIENTED_EDGE('',*,*,#830,.T.);
#1191=ORIENTED_EDGE('',*,*,#839,.T.);
#1192=ORIENTED_EDGE('',*,*,#839,.F.);
#1193=ORIENTED_EDGE('',*,*,#829,.T.);
#1194=ORIENTED_EDGE('',*,*,#832,.F.);
#1195=ORIENTED_EDGE('',*,*,#745,.F.);
#1196=ORIENTED_EDGE('',*,*,#837,.F.);
#1197=ORIENTED_EDGE('',*,*,#706,.F.);
#1198=ORIENTED_EDGE('',*,*,#728,.F.);
#1199=ORIENTED_EDGE('',*,*,#749,.F.);
#1200=ORIENTED_EDGE('',*,*,#823,.F.);
#1201=ORIENTED_EDGE('',*,*,#835,.T.);
#1202=ORIENTED_EDGE('',*,*,#780,.F.);
#1203=ORIENTED_EDGE('',*,*,#840,.F.);
#1204=ORIENTED_EDGE('',*,*,#840,.T.);
#1205=ORIENTED_EDGE('',*,*,#779,.F.);
#1206=ORIENTED_EDGE('',*,*,#769,.T.);
#1207=ORIENTED_EDGE('',*,*,#660,.T.);
#1208=ORIENTED_EDGE('',*,*,#701,.F.);
#1209=ORIENTED_EDGE('',*,*,#817,.F.);
#1210=ORIENTED_EDGE('',*,*,#824,.T.);
#1211=ORIENTED_EDGE('',*,*,#666,.T.);
#1212=ORIENTED_EDGE('',*,*,#672,.T.);
#1213=CYLINDRICAL_SURFACE('',#1311,6.);
#1214=CYLINDRICAL_SURFACE('',#1318,1.5);
#1215=CYLINDRICAL_SURFACE('',#1322,1.5);
#1216=CYLINDRICAL_SURFACE('',#1326,1.5);
#1217=CYLINDRICAL_SURFACE('',#1331,1.5);
#1218=CYLINDRICAL_SURFACE('',#1339,8.);
#1219=CYLINDRICAL_SURFACE('',#1351,8.);
#1220=CYLINDRICAL_SURFACE('',#1353,14.065);
#1221=CYLINDRICAL_SURFACE('',#1361,6.);
#1222=CYLINDRICAL_SURFACE('',#1374,2.55);
#1223=CYLINDRICAL_SURFACE('',#1378,2.55000000000505);
#1224=CYLINDRICAL_SURFACE('',#1381,18.5823802778899);
#1225=CYLINDRICAL_SURFACE('',#1384,18.5823802778892);
#1226=CYLINDRICAL_SURFACE('',#1391,1.075);
#1227=CYLINDRICAL_SURFACE('',#1395,1.075);
#1228=CYLINDRICAL_SURFACE('',#1400,2.5);
#1229=CYLINDRICAL_SURFACE('',#1404,1.075);
#1230=CYLINDRICAL_SURFACE('',#1408,1.075);
#1231=CYLINDRICAL_SURFACE('',#1418,1.5);
#1232=CYLINDRICAL_SURFACE('',#1419,11.065);
#1233=CYLINDRICAL_SURFACE('',#1420,14.065);
#1234=CYLINDRICAL_SURFACE('',#1423,1.5);
#1235=ADVANCED_FACE('',(#73),#1213,.T.);
#1236=ADVANCED_FACE('',(#74),#33,.F.);
#1237=ADVANCED_FACE('',(#75),#1214,.F.);
#1238=ADVANCED_FACE('',(#76),#34,.T.);
#1239=ADVANCED_FACE('',(#77),#1215,.F.);
#1240=ADVANCED_FACE('',(#78),#35,.T.);
#1241=ADVANCED_FACE('',(#79),#1216,.F.);
#1242=ADVANCED_FACE('',(#80),#1217,.F.);
#1243=ADVANCED_FACE('',(#81),#36,.F.);
#1244=ADVANCED_FACE('',(#82),#37,.F.);
#1245=ADVANCED_FACE('',(#83),#1218,.T.);
#1246=ADVANCED_FACE('',(#84,#15,#16,#17,#18,#19),#38,.F.);
#1247=ADVANCED_FACE('',(#85),#1219,.T.);
#1248=ADVANCED_FACE('',(#86),#1220,.T.);
#1249=ADVANCED_FACE('',(#87),#39,.F.);
#1250=ADVANCED_FACE('',(#88),#40,.F.);
#1251=ADVANCED_FACE('',(#89),#41,.F.);
#1252=ADVANCED_FACE('',(#90),#42,.F.);
#1253=ADVANCED_FACE('',(#91),#43,.F.);
#1254=ADVANCED_FACE('',(#92),#1221,.T.);
#1255=ADVANCED_FACE('',(#93,#20,#21),#44,.F.);
#1256=ADVANCED_FACE('',(#94),#45,.T.);
#1257=ADVANCED_FACE('',(#95),#46,.T.);
#1258=ADVANCED_FACE('',(#96),#1222,.F.);
#1259=ADVANCED_FACE('',(#97),#47,.T.);
#1260=ADVANCED_FACE('',(#98),#48,.T.);
#1261=ADVANCED_FACE('',(#99),#1223,.F.);
#1262=ADVANCED_FACE('',(#100),#49,.T.);
#1263=ADVANCED_FACE('',(#101),#1224,.T.);
#1264=ADVANCED_FACE('',(#102),#50,.T.);
#1265=ADVANCED_FACE('',(#103),#1225,.T.);
#1266=ADVANCED_FACE('',(#104),#51,.T.);
#1267=ADVANCED_FACE('',(#105,#22,#23),#52,.T.);
#1268=ADVANCED_FACE('',(#106),#53,.T.);
#1269=ADVANCED_FACE('',(#107),#54,.T.);
#1270=ADVANCED_FACE('',(#108),#1226,.F.);
#1271=ADVANCED_FACE('',(#109),#55,.T.);
#1272=ADVANCED_FACE('',(#110),#56,.T.);
#1273=ADVANCED_FACE('',(#111),#1227,.F.);
#1274=ADVANCED_FACE('',(#112),#57,.T.);
#1275=ADVANCED_FACE('',(#113),#58,.T.);
#1276=ADVANCED_FACE('',(#114),#59,.T.);
#1277=ADVANCED_FACE('',(#115),#1228,.F.);
#1278=ADVANCED_FACE('',(#116),#60,.T.);
#1279=ADVANCED_FACE('',(#117),#61,.T.);
#1280=ADVANCED_FACE('',(#118),#1229,.F.);
#1281=ADVANCED_FACE('',(#119),#62,.T.);
#1282=ADVANCED_FACE('',(#120),#63,.T.);
#1283=ADVANCED_FACE('',(#121),#1230,.F.);
#1284=ADVANCED_FACE('',(#122),#64,.T.);
#1285=ADVANCED_FACE('',(#123),#65,.T.);
#1286=ADVANCED_FACE('',(#124),#66,.T.);
#1287=ADVANCED_FACE('',(#125,#24,#25,#26,#27,#28),#67,.T.);
#1288=ADVANCED_FACE('',(#126),#1231,.T.);
#1289=ADVANCED_FACE('',(#127),#1232,.F.);
#1290=ADVANCED_FACE('',(#128),#1233,.T.);
#1291=ADVANCED_FACE('',(#129,#29,#30),#68,.T.);
#1292=ADVANCED_FACE('',(#130),#69,.T.);
#1293=ADVANCED_FACE('',(#131),#1234,.T.);
#1294=ADVANCED_FACE('',(#132),#70,.T.);
#1295=ADVANCED_FACE('',(#133),#71,.T.);
#1296=ADVANCED_FACE('',(#134,#31,#32),#72,.T.);
#1297=CLOSED_SHELL('',(#1235,#1236,#1237,#1238,#1239,#1240,#1241,#1242,
#1243,#1244,#1245,#1246,#1247,#1248,#1249,#1250,#1251,#1252,#1253,#1254,
#1255,#1256,#1257,#1258,#1259,#1260,#1261,#1262,#1263,#1264,#1265,#1266,
#1267,#1268,#1269,#1270,#1271,#1272,#1273,#1274,#1275,#1276,#1277,#1278,
#1279,#1280,#1281,#1282,#1283,#1284,#1285,#1286,#1287,#1288,#1289,#1290,
#1291,#1292,#1293,#1294,#1295,#1296));
#1298=DERIVED_UNIT_ELEMENT(#1300,1.);
#1299=DERIVED_UNIT_ELEMENT(#2175,-3.);
#1300=(
MASS_UNIT()
NAMED_UNIT(*)
SI_UNIT(.KILO.,.GRAM.)
);
#1301=DERIVED_UNIT((#1298,#1299));
#1302=MEASURE_REPRESENTATION_ITEM('density measure',
POSITIVE_RATIO_MEASURE(7850.),#1301);
#1303=PROPERTY_DEFINITION_REPRESENTATION(#1308,#1305);
#1304=PROPERTY_DEFINITION_REPRESENTATION(#1309,#1306);
#1305=REPRESENTATION('material name',(#1307),#2172);
#1306=REPRESENTATION('density',(#1302),#2172);
#1307=DESCRIPTIVE_REPRESENTATION_ITEM('Steel','Steel');
#1308=PROPERTY_DEFINITION('material property','material name',#2182);
#1309=PROPERTY_DEFINITION('material property','density of part',#2182);
#1310=AXIS2_PLACEMENT_3D('',#1791,#1427,#1428);
#1311=AXIS2_PLACEMENT_3D('',#1792,#1429,#1430);
#1312=AXIS2_PLACEMENT_3D('',#1800,#1431,#1432);
#1313=AXIS2_PLACEMENT_3D('',#1802,#1433,#1434);
#1314=AXIS2_PLACEMENT_3D('',#1804,#1435,#1436);
#1315=AXIS2_PLACEMENT_3D('',#1808,#1438,#1439);
#1316=AXIS2_PLACEMENT_3D('',#1810,#1441,#1442);
#1317=AXIS2_PLACEMENT_3D('',#1815,#1444,#1445);
#1318=AXIS2_PLACEMENT_3D('',#1819,#1448,#1449);
#1319=AXIS2_PLACEMENT_3D('',#1821,#1450,#1451);
#1320=AXIS2_PLACEMENT_3D('',#1824,#1453,#1454);
#1321=AXIS2_PLACEMENT_3D('',#1825,#1455,#1456);
#1322=AXIS2_PLACEMENT_3D('',#1826,#1457,#1458);
#1323=AXIS2_PLACEMENT_3D('',#1828,#1459,#1460);
#1324=AXIS2_PLACEMENT_3D('',#1831,#1462,#1463);
#1325=AXIS2_PLACEMENT_3D('',#1832,#1464,#1465);
#1326=AXIS2_PLACEMENT_3D('',#1833,#1466,#1467);
#1327=AXIS2_PLACEMENT_3D('',#1835,#1468,#1469);
#1328=AXIS2_PLACEMENT_3D('',#1839,#1471,#1472);
#1329=AXIS2_PLACEMENT_3D('',#1841,#1473,#1474);
#1330=AXIS2_PLACEMENT_3D('',#1842,#1475,#1476);
#1331=AXIS2_PLACEMENT_3D('',#1843,#1477,#1478);
#1332=AXIS2_PLACEMENT_3D('',#1845,#1479,#1480);
#1333=AXIS2_PLACEMENT_3D('',#1849,#1482,#1483);
#1334=AXIS2_PLACEMENT_3D('',#1851,#1484,#1485);
#1335=AXIS2_PLACEMENT_3D('',#1852,#1486,#1487);
#1336=AXIS2_PLACEMENT_3D('',#1853,#1488,#1489);
#1337=AXIS2_PLACEMENT_3D('',#1860,#1494,#1495);
#1338=AXIS2_PLACEMENT_3D('',#1865,#1498,#1499);
#1339=AXIS2_PLACEMENT_3D('',#1867,#1501,#1502);
#1340=AXIS2_PLACEMENT_3D('',#1870,#1503,#1504);
#1341=AXIS2_PLACEMENT_3D('',#1874,#1506,#1507);
#1342=AXIS2_PLACEMENT_3D('',#1876,#1509,#1510);
#1343=AXIS2_PLACEMENT_3D('',#1897,#1521,#1522);
#1344=AXIS2_PLACEMENT_3D('',#1899,#1523,#1524);
#1345=AXIS2_PLACEMENT_3D('',#1902,#1526,#1527);
#1346=AXIS2_PLACEMENT_3D('',#1905,#1528,#1529);
#1347=AXIS2_PLACEMENT_3D('',#1913,#1533,#1534);
#1348=AXIS2_PLACEMENT_3D('',#1919,#1537,#1538);
#1349=AXIS2_PLACEMENT_3D('',#1925,#1541,#1542);
#1350=AXIS2_PLACEMENT_3D('',#1931,#1545,#1546);
#1351=AXIS2_PLACEMENT_3D('',#1935,#1549,#1550);
#1352=AXIS2_PLACEMENT_3D('',#1938,#1551,#1552);
#1353=AXIS2_PLACEMENT_3D('',#1941,#1555,#1556);
#1354=AXIS2_PLACEMENT_3D('',#1943,#1557,#1558);
#1355=AXIS2_PLACEMENT_3D('',#1945,#1560,#1561);
#1356=AXIS2_PLACEMENT_3D('',#1949,#1564,#1565);
#1357=AXIS2_PLACEMENT_3D('',#1951,#1567,#1568);
#1358=AXIS2_PLACEMENT_3D('',#1952,#1569,#1570);
#1359=AXIS2_PLACEMENT_3D('',#1956,#1573,#1574);
#1360=AXIS2_PLACEMENT_3D('',#1958,#1576,#1577);
#1361=AXIS2_PLACEMENT_3D('',#1962,#1580,#1581);
#1362=AXIS2_PLACEMENT_3D('',#1970,#1583,#1584);
#1363=AXIS2_PLACEMENT_3D('',#1971,#1585,#1586);
#1364=AXIS2_PLACEMENT_3D('',#1973,#1587,#1588);
#1365=AXIS2_PLACEMENT_3D('',#1976,#1590,#1591);
#1366=AXIS2_PLACEMENT_3D('',#1978,#1592,#1593);
#1367=AXIS2_PLACEMENT_3D('',#1982,#1595,#1596);
#1368=AXIS2_PLACEMENT_3D('',#1984,#1597,#1598);
#1369=AXIS2_PLACEMENT_3D('',#1986,#1599,#1600);
#1370=AXIS2_PLACEMENT_3D('',#1990,#1602,#1603);
#1371=AXIS2_PLACEMENT_3D('',#1996,#1606,#1607);
#1372=AXIS2_PLACEMENT_3D('',#2000,#1610,#1611);
#1373=AXIS2_PLACEMENT_3D('',#2006,#1615,#1616);
#1374=AXIS2_PLACEMENT_3D('',#2010,#1619,#1620);
#1375=AXIS2_PLACEMENT_3D('',#2011,#1621,#1622);
#1376=AXIS2_PLACEMENT_3D('',#2012,#1623,#1624);
#1377=AXIS2_PLACEMENT_3D('',#2018,#1628,#1629);
#1378=AXIS2_PLACEMENT_3D('',#2022,#1632,#1633);
#1379=AXIS2_PLACEMENT_3D('',#2023,#1634,#1635);
#1380=AXIS2_PLACEMENT_3D('',#2024,#1636,#1637);
#1381=AXIS2_PLACEMENT_3D('',#2030,#1641,#1642);
#1382=AXIS2_PLACEMENT_3D('',#2032,#1643,#1644);
#1383=AXIS2_PLACEMENT_3D('',#2034,#1646,#1647);
#1384=AXIS2_PLACEMENT_3D('',#2038,#1650,#1651);
#1385=AXIS2_PLACEMENT_3D('',#2040,#1652,#1653);
#1386=AXIS2_PLACEMENT_3D('',#2042,#1655,#1656);
#1387=AXIS2_PLACEMENT_3D('',#2046,#1659,#1660);
#1388=AXIS2_PLACEMENT_3D('',#2052,#1663,#1664);
#1389=AXIS2_PLACEMENT_3D('',#2056,#1667,#1668);
#1390=AXIS2_PLACEMENT_3D('',#2062,#1672,#1673);
#1391=AXIS2_PLACEMENT_3D('',#2066,#1676,#1677);
#1392=AXIS2_PLACEMENT_3D('',#2067,#1678,#1679);
#1393=AXIS2_PLACEMENT_3D('',#2068,#1680,#1681);
#1394=AXIS2_PLACEMENT_3D('',#2074,#1685,#1686);
#1395=AXIS2_PLACEMENT_3D('',#2078,#1689,#1690);
#1396=AXIS2_PLACEMENT_3D('',#2080,#1691,#1692);
#1397=AXIS2_PLACEMENT_3D('',#2082,#1694,#1695);
#1398=AXIS2_PLACEMENT_3D('',#2084,#1697,#1698);
#1399=AXIS2_PLACEMENT_3D('',#2090,#1702,#1703);
#1400=AXIS2_PLACEMENT_3D('',#2094,#1706,#1707);
#1401=AXIS2_PLACEMENT_3D('',#2095,#1708,#1709);
#1402=AXIS2_PLACEMENT_3D('',#2096,#1710,#1711);
#1403=AXIS2_PLACEMENT_3D('',#2102,#1715,#1716);
#1404=AXIS2_PLACEMENT_3D('',#2106,#1719,#1720);
#1405=AXIS2_PLACEMENT_3D('',#2107,#1721,#1722);
#1406=AXIS2_PLACEMENT_3D('',#2108,#1723,#1724);
#1407=AXIS2_PLACEMENT_3D('',#2114,#1728,#1729);
#1408=AXIS2_PLACEMENT_3D('',#2118,#1732,#1733);
#1409=AXIS2_PLACEMENT_3D('',#2119,#1734,#1735);
#1410=AXIS2_PLACEMENT_3D('',#2120,#1736,#1737);
#1411=AXIS2_PLACEMENT_3D('',#2126,#1741,#1742);
#1412=AXIS2_PLACEMENT_3D('',#2130,#1745,#1746);
#1413=AXIS2_PLACEMENT_3D('',#2134,#1749,#1750);
#1414=AXIS2_PLACEMENT_3D('',#2144,#1755,#1756);
#1415=AXIS2_PLACEMENT_3D('',#2146,#1757,#1758);
#1416=AXIS2_PLACEMENT_3D('',#2150,#1760,#1761);
#1417=AXIS2_PLACEMENT_3D('',#2151,#1762,#1763);
#1418=AXIS2_PLACEMENT_3D('',#2152,#1764,#1765);
#1419=AXIS2_PLACEMENT_3D('',#2155,#1768,#1769);
#1420=AXIS2_PLACEMENT_3D('',#2159,#1773,#1774);
#1421=AXIS2_PLACEMENT_3D('',#2161,#1776,#1777);
#1422=AXIS2_PLACEMENT_3D('',#2163,#1779,#1780);
#1423=AXIS2_PLACEMENT_3D('',#2164,#1781,#1782);
#1424=AXIS2_PLACEMENT_3D('',#2166,#1784,#1785);
#1425=AXIS2_PLACEMENT_3D('',#2167,#1786,#1787);
#1426=AXIS2_PLACEMENT_3D('',#2169,#1789,#1790);
#1427=DIRECTION('axis',(0.,0.,1.));
#1428=DIRECTION('refdir',(1.,0.,0.));
#1429=DIRECTION('center_axis',(0.,0.,1.));
#1430=DIRECTION('ref_axis',(1.,0.,0.));
#1431=DIRECTION('center_axis',(0.,0.,1.));
#1432=DIRECTION('ref_axis',(1.,0.,0.));
#1433=DIRECTION('center_axis',(0.5,0.,-0.866025403784439));
#1434=DIRECTION('ref_axis',(0.866025403784439,0.,0.5));
#1435=DIRECTION('center_axis',(-0.5,0.,-0.866025403784439));
#1436=DIRECTION('ref_axis',(0.866025403784439,0.,-0.5));
#1437=DIRECTION('',(0.,0.,1.));
#1438=DIRECTION('center_axis',(0.,0.,-1.));
#1439=DIRECTION('ref_axis',(1.,0.,0.));
#1440=DIRECTION('',(0.,0.,1.));
#1441=DIRECTION('center_axis',(0.,0.,-1.));
#1442=DIRECTION('ref_axis',(1.,0.,0.));
#1443=DIRECTION('',(0.,-1.,0.));
#1444=DIRECTION('center_axis',(0.,0.,1.));
#1445=DIRECTION('ref_axis',(3.70074341541719E-16,-1.,0.));
#1446=DIRECTION('',(0.,1.,0.));
#1447=DIRECTION('',(1.,0.,0.));
#1448=DIRECTION('center_axis',(0.,0.,1.));
#1449=DIRECTION('ref_axis',(1.,0.,0.));
#1450=DIRECTION('center_axis',(-1.86740095145972E-18,0.,1.));
#1451=DIRECTION('ref_axis',(1.,0.,0.));
#1452=DIRECTION('',(0.,0.,1.));
#1453=DIRECTION('center_axis',(0.,0.,1.));
#1454=DIRECTION('ref_axis',(1.,0.,0.));
#1455=DIRECTION('center_axis',(0.,0.,-1.));
#1456=DIRECTION('ref_axis',(1.,0.,0.));
#1457=DIRECTION('center_axis',(0.,0.,1.));
#1458=DIRECTION('ref_axis',(1.,0.,0.));
#1459=DIRECTION('center_axis',(-1.86740095145972E-18,0.,1.));
#1460=DIRECTION('ref_axis',(1.,0.,0.));
#1461=DIRECTION('',(0.,0.,1.));
#1462=DIRECTION('center_axis',(0.,0.,1.));
#1463=DIRECTION('ref_axis',(1.,0.,0.));
#1464=DIRECTION('center_axis',(0.,0.,-1.));
#1465=DIRECTION('ref_axis',(1.,0.,0.));
#1466=DIRECTION('center_axis',(0.,0.,1.));
#1467=DIRECTION('ref_axis',(1.,0.,0.));
#1468=DIRECTION('center_axis',(-1.86740095145972E-18,0.,1.));
#1469=DIRECTION('ref_axis',(1.,0.,0.));
#1470=DIRECTION('',(0.,0.,1.));
#1471=DIRECTION('center_axis',(-0.5,0.,-0.866025403784439));
#1472=DIRECTION('ref_axis',(0.866025403784439,0.,-0.5));
#1473=DIRECTION('center_axis',(0.5,0.,-0.866025403784439));
#1474=DIRECTION('ref_axis',(0.866025403784439,0.,0.5));
#1475=DIRECTION('center_axis',(-0.5,0.,-0.866025403784439));
#1476=DIRECTION('ref_axis',(0.866025403784439,0.,-0.5));
#1477=DIRECTION('center_axis',(0.,0.,1.));
#1478=DIRECTION('ref_axis',(1.,0.,0.));
#1479=DIRECTION('center_axis',(-1.86740095145972E-18,0.,1.));
#1480=DIRECTION('ref_axis',(1.,0.,0.));
#1481=DIRECTION('',(0.,0.,1.));
#1482=DIRECTION('center_axis',(-0.499999999999999,0.,-0.866025403784439));
#1483=DIRECTION('ref_axis',(0.866025403784439,0.,-0.499999999999999));
#1484=DIRECTION('center_axis',(0.500000000000001,0.,-0.866025403784438));
#1485=DIRECTION('ref_axis',(0.866025403784438,0.,0.500000000000001));
#1486=DIRECTION('center_axis',(-0.499999999999999,0.,-0.866025403784439));
#1487=DIRECTION('ref_axis',(0.866025403784439,0.,-0.499999999999999));
#1488=DIRECTION('center_axis',(0.5,0.,-0.866025403784439));
#1489=DIRECTION('ref_axis',(0.866025403784439,0.,0.5));
#1490=DIRECTION('',(0.,-1.,0.));
#1491=DIRECTION('',(0.,-1.,0.));
#1492=DIRECTION('',(0.866025403784439,0.,0.5));
#1493=DIRECTION('',(0.,-1.,0.));
#1494=DIRECTION('center_axis',(-0.499999999999999,0.,-0.866025403784439));
#1495=DIRECTION('ref_axis',(0.866025403784439,0.,-0.499999999999999));
#1496=DIRECTION('',(0.,-1.,0.));
#1497=DIRECTION('',(0.866025403784439,0.,-0.499999999999999));
#1498=DIRECTION('center_axis',(-0.499999999999999,0.,-0.866025403784439));
#1499=DIRECTION('ref_axis',(0.866025403784439,3.20493781063927E-16,-0.499999999999999));
#1500=DIRECTION('',(0.,-1.,0.));
#1501=DIRECTION('center_axis',(0.,-1.,0.));
#1502=DIRECTION('ref_axis',(-0.81589314691319,0.,0.578202709108226));
#1503=DIRECTION('center_axis',(0.,1.,0.));
#1504=DIRECTION('ref_axis',(-0.81589314691319,0.,0.578202709108226));
#1505=DIRECTION('',(0.,1.,0.));
#1506=DIRECTION('center_axis',(0.,1.,0.));
#1507=DIRECTION('ref_axis',(-0.81589314691319,0.,0.578202709108226));
#1508=DIRECTION('',(0.,-1.,0.));
#1509=DIRECTION('center_axis',(0.,1.,0.));
#1510=DIRECTION('ref_axis',(1.,0.,0.));
#1511=DIRECTION('',(1.0449157878825E-15,0.,-1.));
#1512=DIRECTION('',(-0.866025403784438,0.,-0.500000000000001));
#1513=DIRECTION('',(0.,0.,1.));
#1514=DIRECTION('',(-1.,-1.43663606825678E-15,0.));
#1515=DIRECTION('',(0.406138471468085,0.,0.913811546213752));
#1516=DIRECTION('',(1.,0.,-9.25185853854297E-17));
#1517=DIRECTION('',(0.406138460638811,0.,-0.913811551026762));
#1518=DIRECTION('',(1.,0.,3.72044128760763E-18));
#1519=DIRECTION('',(-0.866025403784439,0.,0.5));
#1520=DIRECTION('',(0.,0.,1.));
#1521=DIRECTION('center_axis',(0.,1.,0.));
#1522=DIRECTION('ref_axis',(0.815893146913189,0.,0.578202709108227));
#1523=DIRECTION('center_axis',(0.,-1.,0.));
#1524=DIRECTION('ref_axis',(0.73315935623024,0.,0.680056878777106));
#1525=DIRECTION('',(-1.,0.,-1.64041442627375E-14));
#1526=DIRECTION('center_axis',(0.,-1.,0.));
#1527=DIRECTION('ref_axis',(-1.,0.,-1.5787031988982E-16));
#1528=DIRECTION('center_axis',(0.,1.,0.));
#1529=DIRECTION('ref_axis',(0.642787609686542,0.,0.766044443118976));
#1530=DIRECTION('',(0.766044443118979,0.,0.642787609686538));
#1531=DIRECTION('',(0.766044443118978,0.,-0.64278760968654));
#1532=DIRECTION('',(0.76604444311898,0.,-0.642787609686537));
#1533=DIRECTION('center_axis',(0.,1.,0.));
#1534=DIRECTION('ref_axis',(0.617584546409112,0.,0.786504499692565));
#1535=DIRECTION('',(0.7589515433256,0.,0.651147106945651));
#1536=DIRECTION('',(0.76604444311898,0.,0.642787609686537));
#1537=DIRECTION('center_axis',(0.,1.,0.));
#1538=DIRECTION('ref_axis',(0.642787609686515,0.,0.766044443118998));
#1539=DIRECTION('',(0.766044443118958,0.,0.642787609686563));
#1540=DIRECTION('',(0.766044443118958,0.,-0.642787609686563));
#1541=DIRECTION('center_axis',(0.,1.,0.));
#1542=DIRECTION('ref_axis',(0.642787609686527,0.,0.766044443118989));
#1543=DIRECTION('',(0.766044443118976,0.,0.642787609686542));
#1544=DIRECTION('',(0.766044443118973,0.,-0.642787609686545));
#1545=DIRECTION('center_axis',(0.,1.,0.));
#1546=DIRECTION('ref_axis',(0.642787609685162,0.,0.766044443120133));
#1547=DIRECTION('',(0.766044443117824,0.,0.642787609687915));
#1548=DIRECTION('',(0.766044443117823,0.,-0.642787609687916));
#1549=DIRECTION('center_axis',(0.,1.,0.));
#1550=DIRECTION('ref_axis',(0.815893146913189,0.,0.578202709108227));
#1551=DIRECTION('center_axis',(0.,1.,0.));
#1552=DIRECTION('ref_axis',(0.815893146913189,0.,0.578202709108227));
#1553=DIRECTION('',(0.,-1.,0.));
#1554=DIRECTION('',(0.,-1.,0.));
#1555=DIRECTION('center_axis',(0.,1.,0.));
#1556=DIRECTION('ref_axis',(-1.,0.,0.));
#1557=DIRECTION('center_axis',(0.,1.,0.));
#1558=DIRECTION('ref_axis',(-1.,0.,0.));
#1559=DIRECTION('',(0.,-1.,0.));
#1560=DIRECTION('center_axis',(-0.5,0.,-0.866025403784439));
#1561=DIRECTION('ref_axis',(0.866025403784439,0.,-0.5));
#1562=DIRECTION('',(0.866025403784439,0.,-0.5));
#1563=DIRECTION('',(0.,-1.,0.));
#1564=DIRECTION('center_axis',(-1.,0.,0.));
#1565=DIRECTION('ref_axis',(0.,0.,-1.));
#1566=DIRECTION('',(0.,0.,-1.));
#1567=DIRECTION('center_axis',(0.500000000000001,0.,-0.866025403784438));
#1568=DIRECTION('ref_axis',(0.866025403784438,0.,0.500000000000001));
#1569=DIRECTION('center_axis',(0.500000000000001,0.,-0.866025403784438));
#1570=DIRECTION('ref_axis',(0.866025403784438,3.20493781063927E-16,0.500000000000001));
#1571=DIRECTION('',(0.,-1.,0.));
#1572=DIRECTION('',(0.866025403784438,0.,0.500000000000001));
#1573=DIRECTION('center_axis',(1.,0.,1.0449157878825E-15));
#1574=DIRECTION('ref_axis',(-1.0449157878825E-15,0.,1.));
#1575=DIRECTION('',(-1.0449157878825E-15,0.,1.));
#1576=DIRECTION('center_axis',(0.,0.,-1.));
#1577=DIRECTION('ref_axis',(1.,0.,0.));
#1578=DIRECTION('',(0.,1.,0.));
#1579=DIRECTION('',(1.,0.,0.));
#1580=DIRECTION('center_axis',(0.,0.,1.));
#1581=DIRECTION('ref_axis',(3.70074341541719E-16,-1.,0.));
#1582=DIRECTION('',(0.,0.,1.));
#1583=DIRECTION('center_axis',(0.,0.,-1.));
#1584=DIRECTION('ref_axis',(3.70074341541719E-16,-1.,0.));
#1585=DIRECTION('center_axis',(0.,1.,0.));
#1586=DIRECTION('ref_axis',(-1.,0.,0.));
#1587=DIRECTION('center_axis',(0.,1.,0.));
#1588=DIRECTION('ref_axis',(6.41074656533757E-14,0.,1.));
#1589=DIRECTION('',(-1.,0.,6.37273737879825E-14));
#1590=DIRECTION('center_axis',(0.,1.,0.));
#1591=DIRECTION('ref_axis',(-1.,0.,-5.97460071326916E-17));
#1592=DIRECTION('center_axis',(0.,1.,0.));
#1593=DIRECTION('ref_axis',(-1.,0.,0.));
#1594=DIRECTION('',(1.,0.,0.));
#1595=DIRECTION('center_axis',(0.,-1.,0.));
#1596=DIRECTION('ref_axis',(0.906052513918764,0.,0.423165265613198));
#1597=DIRECTION('center_axis',(0.,1.,0.));
#1598=DIRECTION('ref_axis',(-0.63310936235855,0.,-0.774062358788974));
#1599=DIRECTION('center_axis',(0.,-1.,0.));
#1600=DIRECTION('ref_axis',(-0.906052513918762,0.,0.423165265613201));
#1601=DIRECTION('',(1.,0.,0.));
#1602=DIRECTION('center_axis',(0.,-1.,0.));
#1603=DIRECTION('ref_axis',(0.5,0.,0.866025403784438));
#1604=DIRECTION('',(-0.866025403784437,0.,-0.500000000000002));
#1605=DIRECTION('',(-0.866025403784435,0.,0.500000000000006));
#1606=DIRECTION('center_axis',(0.,-1.,0.));
#1607=DIRECTION('ref_axis',(0.499999999998232,0.,0.86602540378546));
#1608=DIRECTION('',(-0.866025403785542,0.,-0.499999999998088));
#1609=DIRECTION('',(-0.866025403785541,0.,0.499999999998091));
#1610=DIRECTION('center_axis',(0.500000000000002,0.,-0.866025403784437));
#1611=DIRECTION('ref_axis',(-0.866025403784437,0.,-0.500000000000002));
#1612=DIRECTION('',(0.,1.,0.));
#1613=DIRECTION('',(-0.866025403784437,0.,-0.500000000000002));
#1614=DIRECTION('',(0.,1.,0.));
#1615=DIRECTION('center_axis',(-0.500000000000006,0.,-0.866025403784435));
#1616=DIRECTION('ref_axis',(-0.866025403784435,0.,0.500000000000006));
#1617=DIRECTION('',(-0.866025403784435,0.,0.500000000000006));
#1618=DIRECTION('',(0.,1.,0.));
#1619=DIRECTION('center_axis',(0.,1.,0.));
#1620=DIRECTION('ref_axis',(-5.44226972855469E-16,0.,-1.));
#1621=DIRECTION('center_axis',(0.,-1.,0.));
#1622=DIRECTION('ref_axis',(0.5,0.,0.866025403784438));
#1623=DIRECTION('center_axis',(0.499999999998089,0.,-0.866025403785542));
#1624=DIRECTION('ref_axis',(-0.866025403785542,0.,-0.499999999998088));
#1625=DIRECTION('',(0.,1.,0.));
#1626=DIRECTION('',(-0.866025403785542,0.,-0.499999999998088));
#1627=DIRECTION('',(0.,1.,0.));
#1628=DIRECTION('center_axis',(-0.499999999998091,0.,-0.866025403785541));
#1629=DIRECTION('ref_axis',(-0.866025403785541,0.,0.499999999998091));
#1630=DIRECTION('',(-0.866025403785541,0.,0.499999999998091));
#1631=DIRECTION('',(0.,1.,0.));
#1632=DIRECTION('center_axis',(0.,1.,0.));
#1633=DIRECTION('ref_axis',(2.04237498372796E-12,0.,-1.));
#1634=DIRECTION('center_axis',(0.,-1.,0.));
#1635=DIRECTION('ref_axis',(0.499999999998232,0.,0.86602540378546));
#1636=DIRECTION('center_axis',(1.,0.,-1.09716139444684E-15));
#1637=DIRECTION('ref_axis',(-1.09716139444684E-15,0.,-1.));
#1638=DIRECTION('',(0.,1.,0.));
#1639=DIRECTION('',(0.,-1.,0.));
#1640=DIRECTION('',(-1.09716139444684E-15,0.,-1.));
#1641=DIRECTION('center_axis',(0.,1.,0.));
#1642=DIRECTION('ref_axis',(6.41074656533757E-14,0.,1.));
#1643=DIRECTION('center_axis',(0.,1.,0.));
#1644=DIRECTION('ref_axis',(6.41074656533757E-14,0.,1.));
#1645=DIRECTION('',(0.,1.,0.));
#1646=DIRECTION('center_axis',(6.37273737879825E-14,0.,1.));
#1647=DIRECTION('ref_axis',(1.,0.,-6.37273737879825E-14));
#1648=DIRECTION('',(1.,0.,-6.37273737879825E-14));
#1649=DIRECTION('',(0.,1.,0.));
#1650=DIRECTION('center_axis',(0.,1.,0.));
#1651=DIRECTION('ref_axis',(-0.00577367044561706,0.,0.999983332225885));
#1652=DIRECTION('center_axis',(0.,1.,0.));
#1653=DIRECTION('ref_axis',(-1.,0.,-5.97460071326916E-17));
#1654=DIRECTION('',(0.,1.,0.));
#1655=DIRECTION('center_axis',(-1.,0.,-1.24747250548572E-12));
#1656=DIRECTION('ref_axis',(-1.24747250548572E-12,0.,1.));
#1657=DIRECTION('',(-1.24747250548572E-12,0.,1.));
#1658=DIRECTION('',(0.,1.,0.));
#1659=DIRECTION('center_axis',(0.,1.,0.));
#1660=DIRECTION('ref_axis',(-1.,0.,0.));
#1661=DIRECTION('',(-1.,0.,6.37102660962946E-32));
#1662=DIRECTION('',(0.,0.,1.));
#1663=DIRECTION('center_axis',(0.,-1.,0.));
#1664=DIRECTION('ref_axis',(-0.63310936235855,0.,-0.774062358788974));
#1665=DIRECTION('',(0.,0.,-1.));
#1666=DIRECTION('',(-1.,0.,0.));
#1667=DIRECTION('center_axis',(-0.64278760968654,0.,-0.766044443118978));
#1668=DIRECTION('ref_axis',(0.766044443118978,0.,-0.64278760968654));
#1669=DIRECTION('',(-0.766044443118978,0.,0.64278760968654));
#1670=DIRECTION('',(0.,-1.,0.));
#1671=DIRECTION('',(0.,-1.,0.));
#1672=DIRECTION('center_axis',(0.642787609686538,0.,-0.766044443118979));
#1673=DIRECTION('ref_axis',(0.766044443118979,0.,0.642787609686538));
#1674=DIRECTION('',(-0.766044443118979,0.,-0.642787609686538));
#1675=DIRECTION('',(0.,-1.,0.));
#1676=DIRECTION('center_axis',(0.,-1.,0.));
#1677=DIRECTION('ref_axis',(-2.06553120860494E-15,0.,-1.));
#1678=DIRECTION('center_axis',(0.,-1.,0.));
#1679=DIRECTION('ref_axis',(0.642787609686542,0.,0.766044443118976));
#1680=DIRECTION('center_axis',(0.642787609686537,0.,-0.76604444311898));
#1681=DIRECTION('ref_axis',(0.76604444311898,0.,0.642787609686537));
#1682=DIRECTION('',(-0.76604444311898,0.,-0.642787609686537));
#1683=DIRECTION('',(0.,-1.,0.));
#1684=DIRECTION('',(0.,-1.,0.));
#1685=DIRECTION('center_axis',(0.651147106945651,0.,-0.7589515433256));
#1686=DIRECTION('ref_axis',(0.7589515433256,0.,0.651147106945651));
#1687=DIRECTION('',(-0.7589515433256,0.,-0.651147106945651));
#1688=DIRECTION('',(0.,-1.,0.));
#1689=DIRECTION('center_axis',(0.,-1.,0.));
#1690=DIRECTION('ref_axis',(0.0109629745265475,0.,-0.999939904789048));
#1691=DIRECTION('center_axis',(0.,-1.,0.));
#1692=DIRECTION('ref_axis',(0.617584546409112,0.,0.786504499692565));
#1693=DIRECTION('',(0.,-1.,0.));
#1694=DIRECTION('center_axis',(-0.642787609686537,0.,-0.76604444311898));
#1695=DIRECTION('ref_axis',(0.76604444311898,0.,-0.642787609686537));
#1696=DIRECTION('',(-0.76604444311898,0.,0.642787609686537));
#1697=DIRECTION('center_axis',(-0.642787609686563,0.,-0.766044443118958));
#1698=DIRECTION('ref_axis',(0.766044443118958,0.,-0.642787609686563));
#1699=DIRECTION('',(-0.766044443118958,0.,0.642787609686563));
#1700=DIRECTION('',(0.,-1.,0.));
#1701=DIRECTION('',(0.,-1.,0.));
#1702=DIRECTION('center_axis',(0.642787609686563,0.,-0.766044443118958));
#1703=DIRECTION('ref_axis',(0.766044443118958,0.,0.642787609686563));
#1704=DIRECTION('',(-0.766044443118958,0.,-0.642787609686563));
#1705=DIRECTION('',(0.,-1.,0.));
#1706=DIRECTION('center_axis',(0.,-1.,0.));
#1707=DIRECTION('ref_axis',(3.14193115968919E-14,0.,-1.));
#1708=DIRECTION('center_axis',(0.,-1.,0.));
#1709=DIRECTION('ref_axis',(0.642787609686515,0.,0.766044443118998));
#1710=DIRECTION('center_axis',(-0.642787609686545,0.,-0.766044443118973));
#1711=DIRECTION('ref_axis',(0.766044443118973,0.,-0.642787609686545));
#1712=DIRECTION('',(-0.766044443118973,0.,0.642787609686545));
#1713=DIRECTION('',(0.,-1.,0.));
#1714=DIRECTION('',(0.,-1.,0.));
#1715=DIRECTION('center_axis',(0.642787609686542,0.,-0.766044443118976));
#1716=DIRECTION('ref_axis',(0.766044443118976,0.,0.642787609686542));
#1717=DIRECTION('',(-0.766044443118976,0.,-0.642787609686542));
#1718=DIRECTION('',(0.,-1.,0.));
#1719=DIRECTION('center_axis',(0.,-1.,0.));
#1720=DIRECTION('ref_axis',(1.43941706099657E-14,0.,-1.));
#1721=DIRECTION('center_axis',(0.,-1.,0.));
#1722=DIRECTION('ref_axis',(0.642787609686527,0.,0.766044443118989));
#1723=DIRECTION('center_axis',(-0.642787609687916,0.,-0.766044443117823));
#1724=DIRECTION('ref_axis',(0.766044443117823,0.,-0.642787609687916));
#1725=DIRECTION('',(-0.766044443117823,0.,0.642787609687916));
#1726=DIRECTION('',(0.,-1.,0.));
#1727=DIRECTION('',(0.,-1.,0.));
#1728=DIRECTION('center_axis',(0.642787609687915,0.,-0.766044443117824));
#1729=DIRECTION('ref_axis',(0.766044443117824,0.,0.642787609687915));
#1730=DIRECTION('',(-0.766044443117824,0.,-0.642787609687915));
#1731=DIRECTION('',(0.,-1.,0.));
#1732=DIRECTION('center_axis',(0.,-1.,0.));
#1733=DIRECTION('ref_axis',(1.79656031653441E-12,0.,-1.));
#1734=DIRECTION('center_axis',(0.,-1.,0.));
#1735=DIRECTION('ref_axis',(0.642787609685162,0.,0.766044443120133));
#1736=DIRECTION('center_axis',(-0.913811551026762,0.,-0.406138460638811));
#1737=DIRECTION('ref_axis',(0.406138460638811,0.,-0.913811551026762));
#1738=DIRECTION('',(0.406138460638811,0.,-0.913811551026762));
#1739=DIRECTION('',(0.,-1.,0.));
#1740=DIRECTION('',(0.,-1.,0.));
#1741=DIRECTION('center_axis',(-9.25185853854297E-17,0.,-1.));
#1742=DIRECTION('ref_axis',(1.,0.,-9.25185853854297E-17));
#1743=DIRECTION('',(1.,0.,-9.25185853854297E-17));
#1744=DIRECTION('',(0.,-1.,0.));
#1745=DIRECTION('center_axis',(0.913811546213752,0.,-0.406138471468085));
#1746=DIRECTION('ref_axis',(0.406138471468085,0.,0.913811546213752));
#1747=DIRECTION('',(0.406138471468085,0.,0.913811546213752));
#1748=DIRECTION('',(0.,-1.,0.));
#1749=DIRECTION('center_axis',(0.,1.,0.));
#1750=DIRECTION('ref_axis',(1.,0.,0.));
#1751=DIRECTION('',(0.,0.,-1.));
#1752=DIRECTION('',(1.,0.,3.72044128760763E-18));
#1753=DIRECTION('',(1.,0.,4.9077436561696E-16));
#1754=DIRECTION('',(0.,0.,-1.));
#1755=DIRECTION('center_axis',(0.,1.,0.));
#1756=DIRECTION('ref_axis',(-0.63310936235855,0.,-0.774062358788974));
#1757=DIRECTION('center_axis',(0.,1.,0.));
#1758=DIRECTION('ref_axis',(0.906052513918764,0.,0.423165265613198));
#1759=DIRECTION('',(-1.,0.,-1.64041442627375E-14));
#1760=DIRECTION('center_axis',(0.,1.,0.));
#1761=DIRECTION('ref_axis',(-0.906052513918762,0.,0.423165265613201));
#1762=DIRECTION('center_axis',(0.,1.,0.));
#1763=DIRECTION('ref_axis',(-0.63310936235855,0.,-0.774062358788974));
#1764=DIRECTION('center_axis',(0.,1.,0.));
#1765=DIRECTION('ref_axis',(0.906052513918764,0.,0.423165265613198));
#1766=DIRECTION('',(0.,-1.,0.));
#1767=DIRECTION('',(0.,1.,0.));
#1768=DIRECTION('center_axis',(0.,1.,0.));
#1769=DIRECTION('ref_axis',(-3.01009405682374E-16,0.,1.));
#1770=DIRECTION('',(0.,1.,0.));
#1771=DIRECTION('',(0.,1.,0.));
#1772=DIRECTION('',(0.,-1.,0.));
#1773=DIRECTION('center_axis',(0.,1.,0.));
#1774=DIRECTION('ref_axis',(-1.,0.,0.));
#1775=DIRECTION('',(0.,1.,0.));
#1776=DIRECTION('center_axis',(1.86740095145972E-18,0.,-1.));
#1777=DIRECTION('ref_axis',(-1.,0.,-1.86740095145972E-18));
#1778=DIRECTION('',(0.,1.,0.));
#1779=DIRECTION('center_axis',(1.,0.,0.));
#1780=DIRECTION('ref_axis',(0.,0.,-1.));
#1781=DIRECTION('center_axis',(0.,1.,0.));
#1782=DIRECTION('ref_axis',(-0.906052513918762,0.,0.423165265613201));
#1783=DIRECTION('',(0.,1.,0.));
#1784=DIRECTION('center_axis',(0.,0.,1.));
#1785=DIRECTION('ref_axis',(1.,0.,0.));
#1786=DIRECTION('center_axis',(-1.,0.,0.));
#1787=DIRECTION('ref_axis',(0.,0.,1.));
#1788=DIRECTION('',(0.,1.,0.));
#1789=DIRECTION('center_axis',(1.86740095145972E-18,0.,-1.));
#1790=DIRECTION('ref_axis',(-1.,0.,-1.86740095145972E-18));
#1791=CARTESIAN_POINT('',(0.,0.,0.));
#1792=CARTESIAN_POINT('Origin',(15.9969837660283,4.,2.42500535979888E-17));
#1793=CARTESIAN_POINT('',(21.9969837660284,4.,4.0476197221099));
#1794=CARTESIAN_POINT('',(21.8941345439477,2.89382971361297,6.));
#1795=CARTESIAN_POINT('Ctrl Pts',(21.9969837660283,4.,4.0476197221099));
#1796=CARTESIAN_POINT('Ctrl Pts',(21.9969837660283,3.63816701916124,4.68439060493401));
#1797=CARTESIAN_POINT('Ctrl Pts',(21.9640717125972,3.26667468475583,5.33803568154715));
#1798=CARTESIAN_POINT('Ctrl Pts',(21.8941345439477,2.89382971361299,6.00000000000001));
#1799=CARTESIAN_POINT('',(18.1790345735972,-1.58915505896804,6.));
#1800=CARTESIAN_POINT('Origin',(15.9969837660283,4.,6.));
#1801=CARTESIAN_POINT('',(16.4469837660283,-1.98310120255374,5.));
#1802=CARTESIAN_POINT('Origin',(15.9969837660283,4.,4.74019237886467));
#1803=CARTESIAN_POINT('',(15.9969837660283,-2.,5.25980762113533));
#1804=CARTESIAN_POINT('Origin',(15.9969837660283,4.,5.25980762113533));
#1805=CARTESIAN_POINT('',(15.9969837660283,-2.,2.42500535979888E-17));
#1806=CARTESIAN_POINT('',(15.9969837660283,-2.,2.42500535979888E-17));
#1807=CARTESIAN_POINT('',(21.9969837660283,4.,2.42500535979888E-17));
#1808=CARTESIAN_POINT('Origin',(15.9969837660283,4.,2.42500535979888E-17));
#1809=CARTESIAN_POINT('',(21.9969837660283,4.,2.42500535979888E-17));
#1810=CARTESIAN_POINT('Origin',(-18.0309918830142,1.375,6.));
#1811=CARTESIAN_POINT('',(-21.8941345439528,4.75,6.));
#1812=CARTESIAN_POINT('',(-21.8941345439528,2.89382971364045,6.));
#1813=CARTESIAN_POINT('',(-21.8941345439528,4.75,6.));
#1814=CARTESIAN_POINT('',(-18.1790345735972,-1.58915505896804,6.));
#1815=CARTESIAN_POINT('Origin',(-15.9969837660283,4.,6.));
#1816=CARTESIAN_POINT('',(-18.1790345735972,4.75,6.));
#1817=CARTESIAN_POINT('',(-18.1790345735972,3.0625,6.));
#1818=CARTESIAN_POINT('',(-9.01549594150835,4.75,6.));
#1819=CARTESIAN_POINT('Origin',(15.,7.75,0.));
#1820=CARTESIAN_POINT('',(13.5,7.75,0.));
#1821=CARTESIAN_POINT('Origin',(15.,7.75,2.62649943822809E-17));
#1822=CARTESIAN_POINT('',(13.5,7.75,5.));
#1823=CARTESIAN_POINT('',(13.5,7.75,0.));
#1824=CARTESIAN_POINT('Origin',(15.,7.75,5.));
#1825=CARTESIAN_POINT('Origin',(15.,7.75,5.));
#1826=CARTESIAN_POINT('Origin',(-15.,7.75,0.));
#1827=CARTESIAN_POINT('',(-16.5,7.75,0.));
#1828=CARTESIAN_POINT('Origin',(-15.,7.75,-1.30818067687775E-17));
#1829=CARTESIAN_POINT('',(-16.5,7.75,5.));
#1830=CARTESIAN_POINT('',(-16.5,7.75,0.));
#1831=CARTESIAN_POINT('Origin',(-15.,7.75,5.));
#1832=CARTESIAN_POINT('Origin',(-15.,7.75,5.));
#1833=CARTESIAN_POINT('Origin',(15.,1.5,0.));
#1834=CARTESIAN_POINT('',(13.5,1.5,0.));
#1835=CARTESIAN_POINT('Origin',(15.,1.5,2.62649943822809E-17));
#1836=CARTESIAN_POINT('',(13.5,1.5,6.70144187061392));
#1837=CARTESIAN_POINT('',(13.5,1.5,0.));
#1838=CARTESIAN_POINT('',(16.4469837660283,1.1047304959266,5.));
#1839=CARTESIAN_POINT('Origin',(15.,1.5,5.83541646682948));
#1840=CARTESIAN_POINT('',(16.4469837660283,1.8952695040734,5.));
#1841=CARTESIAN_POINT('Origin',(15.,1.5,4.16458353317052));
#1842=CARTESIAN_POINT('Origin',(15.,1.5,5.83541646682948));
#1843=CARTESIAN_POINT('Origin',(-15.,1.5,0.));
#1844=CARTESIAN_POINT('',(-16.5,1.5,0.));
#1845=CARTESIAN_POINT('Origin',(-15.,1.5,-1.30818067687775E-17));
#1846=CARTESIAN_POINT('',(-16.5,1.5,5.03060893695496));
#1847=CARTESIAN_POINT('',(-16.5,1.5,0.));
#1848=CARTESIAN_POINT('',(-16.4469837660283,1.10473049592658,5.));
#1849=CARTESIAN_POINT('Origin',(-15.,1.5,4.16458353317052));
#1850=CARTESIAN_POINT('',(-16.4469837660283,1.89526950407342,5.));
#1851=CARTESIAN_POINT('Origin',(-15.,1.5,5.83541646682948));
#1852=CARTESIAN_POINT('Origin',(-15.,1.5,4.16458353317052));
#1853=CARTESIAN_POINT('Origin',(16.4469837660283,4.75,5.));
#1854=CARTESIAN_POINT('',(16.4469837660283,4.75,5.));
#1855=CARTESIAN_POINT('',(18.1790345735972,4.75,6.));
#1856=CARTESIAN_POINT('',(18.1790345735972,3.0625,6.));
#1857=CARTESIAN_POINT('',(16.4469837660283,4.75,5.));
#1858=CARTESIAN_POINT('',(16.4469837660283,4.75,5.));
#1859=CARTESIAN_POINT('',(16.4469837660283,4.75,5.));
#1860=CARTESIAN_POINT('Origin',(-20.1275917321122,4.75,7.125));
#1861=CARTESIAN_POINT('',(-16.4469837660283,4.75,5.));
#1862=CARTESIAN_POINT('',(-16.4469837660283,4.75,5.));
#1863=CARTESIAN_POINT('',(-20.1275917321122,4.75,7.125));
#1864=CARTESIAN_POINT('',(-16.4469837660283,-1.98310120255374,5.));
#1865=CARTESIAN_POINT('Origin',(-15.9969837660283,4.,4.74019237886468));
#1866=CARTESIAN_POINT('',(-16.4469837660283,4.75,5.));
#1867=CARTESIAN_POINT('Origin',(-4.9483919360285,4.75,13.0717994307414));
#1868=CARTESIAN_POINT('',(-12.7663757999445,-2.,11.375));
#1869=CARTESIAN_POINT('',(-11.475537111334,-2.,17.6974211036072));
#1870=CARTESIAN_POINT('Origin',(-4.9483919360285,-2.,13.0717994307414));
#1871=CARTESIAN_POINT('',(-11.475537111334,4.75,17.6974211036072));
#1872=CARTESIAN_POINT('',(-11.475537111334,4.75,17.6974211036072));
#1873=CARTESIAN_POINT('',(-12.7663757999445,4.75,11.375));
#1874=CARTESIAN_POINT('Origin',(-4.9483919360285,4.75,13.0717994307414));
#1875=CARTESIAN_POINT('',(-12.7663757999445,4.75,11.375));
#1876=CARTESIAN_POINT('Origin',(2.22044604925031E-15,-2.,9.565));
#1877=CARTESIAN_POINT('',(-12.7663757999445,-2.,7.125));
#1878=CARTESIAN_POINT('',(-12.7663757999445,-2.,8.345));
#1879=CARTESIAN_POINT('',(-15.9969837660283,-2.,5.25980762113533));
#1880=CARTESIAN_POINT('',(-9.29101336169873,-2.,9.13150143925271));
#1881=CARTESIAN_POINT('',(-15.9969837660283,-2.,2.42500535979888E-17));
#1882=CARTESIAN_POINT('',(-15.9969837660283,-2.,2.42500535979888E-17));
#1883=CARTESIAN_POINT('',(-5.00000003193096,-2.,0.));
#1884=CARTESIAN_POINT('',(-14.065,-2.,2.42500535979888E-17));
#1885=CARTESIAN_POINT('',(-3.,-2.,4.5));
#1886=CARTESIAN_POINT('',(-5.00000003193096,-2.,9.84176858667781E-16));
#1887=CARTESIAN_POINT('',(3.,-2.,4.5));
#1888=CARTESIAN_POINT('',(-3.,-2.,4.5));
#1889=CARTESIAN_POINT('',(4.99999996806904,-2.,1.33226762955019E-14));
#1890=CARTESIAN_POINT('',(3.,-2.,4.5));
#1891=CARTESIAN_POINT('',(7.00535509449736,-2.,0.));
#1892=CARTESIAN_POINT('',(12.7663757999445,-2.,7.125));
#1893=CARTESIAN_POINT('',(7.45070937865679,-2.,10.1940014392527));
#1894=CARTESIAN_POINT('',(12.7663757999445,-2.,11.375));
#1895=CARTESIAN_POINT('',(12.7663757999445,-2.,10.47));
#1896=CARTESIAN_POINT('',(11.475537111334,-2.,17.6974211036072));
#1897=CARTESIAN_POINT('Origin',(4.94839193602849,-2.,13.0717994307414));
#1898=CARTESIAN_POINT('',(10.3118863453783,-2.,19.13));
#1899=CARTESIAN_POINT('Origin',(0.,-2.,9.565));
#1900=CARTESIAN_POINT('',(-10.3118863453783,-2.,19.13));
#1901=CARTESIAN_POINT('',(-9.63509211165103,-2.,19.13));
#1902=CARTESIAN_POINT('Origin',(0.,-2.,9.565));
#1903=CARTESIAN_POINT('',(-2.49098383492643,-2.,7.20651726101343));
#1904=CARTESIAN_POINT('',(-3.87297719575249,-2.,7.20651726101344));
#1905=CARTESIAN_POINT('Origin',(-3.18198051533946,-2.,6.38301948466053));
#1906=CARTESIAN_POINT('',(-3.18198051533946,-2.,7.78633232069273));
#1907=CARTESIAN_POINT('',(-3.87297719575249,-2.,7.20651726101344));
#1908=CARTESIAN_POINT('',(-3.18198051533946,-2.,7.78633232069273));
#1909=CARTESIAN_POINT('',(3.18198051533946,-2.,7.78633232069273));
#1910=CARTESIAN_POINT('',(3.87297719575249,-2.,7.20651726101344));
#1911=CARTESIAN_POINT('',(3.18198051533946,-2.,7.78633232069273));
#1912=CARTESIAN_POINT('',(2.47309504708826,-2.,7.19116946634851));
#1913=CARTESIAN_POINT('Origin',(3.18198051533946,-2.,6.38301948466053));
#1914=CARTESIAN_POINT('',(2.49098383492643,-2.,7.20651726101344));
#1915=CARTESIAN_POINT('',(2.47309504708826,-2.,7.19116946634851));
#1916=CARTESIAN_POINT('',(3.18198051533946,-2.,7.78633232069273));
#1917=CARTESIAN_POINT('',(1.60696902421629,-2.,11.4801111077975));
#1918=CARTESIAN_POINT('',(-1.60696902421641,-2.,11.4801111077974));
#1919=CARTESIAN_POINT('Origin',(0.,-2.,9.565));
#1920=CARTESIAN_POINT('',(1.11022302462516E-15,-2.,12.8285182233308));
#1921=CARTESIAN_POINT('',(-1.60696902421641,-2.,11.4801111077974));
#1922=CARTESIAN_POINT('',(1.11022302462516E-15,-2.,12.8285182233308));
#1923=CARTESIAN_POINT('',(-2.49098383492645,-2.,13.5704782916924));
#1924=CARTESIAN_POINT('',(-3.87297719575251,-2.,13.5704782916924));
#1925=CARTESIAN_POINT('Origin',(-3.18198051533946,-2.,12.7469805153395));
#1926=CARTESIAN_POINT('',(-3.18198051533946,-2.,14.1502933513717));
#1927=CARTESIAN_POINT('',(-3.87297719575251,-2.,13.5704782916924));
#1928=CARTESIAN_POINT('',(-3.18198051533946,-2.,14.1502933513717));
#1929=CARTESIAN_POINT('',(3.87297719575101,-2.,13.5704782916936));
#1930=CARTESIAN_POINT('',(2.49098383492495,-2.,13.5704782916911));
#1931=CARTESIAN_POINT('Origin',(3.18198051533946,-2.,12.7469805153395));
#1932=CARTESIAN_POINT('',(3.18198051533947,-2.,14.1502933513738));
#1933=CARTESIAN_POINT('',(2.49098383492495,-2.,13.5704782916911));
#1934=CARTESIAN_POINT('',(3.18198051533947,-2.,14.1502933513738));
#1935=CARTESIAN_POINT('Origin',(4.94839193602849,4.75,13.0717994307414));
#1936=CARTESIAN_POINT('',(12.7663757999445,4.75,11.375));
#1937=CARTESIAN_POINT('',(11.475537111334,4.75,17.6974211036072));
#1938=CARTESIAN_POINT('Origin',(4.94839193602849,4.75,13.0717994307414));
#1939=CARTESIAN_POINT('',(11.475537111334,4.75,17.6974211036072));
#1940=CARTESIAN_POINT('',(12.7663757999445,4.75,11.375));
#1941=CARTESIAN_POINT('Origin',(0.,0.,9.565));
#1942=CARTESIAN_POINT('',(10.3118863453783,4.75,19.13));
#1943=CARTESIAN_POINT('Origin',(0.,4.75,9.565));
#1944=CARTESIAN_POINT('',(10.3118863453783,0.,19.13));
#1945=CARTESIAN_POINT('Origin',(12.7663757999445,4.75,7.125));
#1946=CARTESIAN_POINT('',(12.7663757999445,4.75,7.125));
#1947=CARTESIAN_POINT('',(12.7663757999445,4.75,7.125));
#1948=CARTESIAN_POINT('',(12.7663757999445,4.75,7.125));
#1949=CARTESIAN_POINT('Origin',(12.7663757999445,4.75,11.375));
#1950=CARTESIAN_POINT('',(12.7663757999445,4.75,11.375));
#1951=CARTESIAN_POINT('Origin',(-16.4469837660283,4.75,5.));
#1952=CARTESIAN_POINT('Origin',(-15.9969837660283,4.,5.25980762113533));
#1953=CARTESIAN_POINT('',(-12.7663757999445,4.75,7.125));
#1954=CARTESIAN_POINT('',(-12.7663757999445,4.75,7.125));
#1955=CARTESIAN_POINT('',(-16.4469837660283,4.75,5.));
#1956=CARTESIAN_POINT('Origin',(-12.7663757999445,4.75,7.125));
#1957=CARTESIAN_POINT('',(-12.7663757999445,4.75,7.125));
#1958=CARTESIAN_POINT('Origin',(18.0309918830142,1.375,6.));
#1959=CARTESIAN_POINT('',(21.8941345439477,4.75,6.));
#1960=CARTESIAN_POINT('',(21.8941345439477,4.75,6.));
#1961=CARTESIAN_POINT('',(9.01549594150582,4.75,6.));
#1962=CARTESIAN_POINT('Origin',(-15.9969837660283,4.,2.42500535979888E-17));
#1963=CARTESIAN_POINT('',(-21.9969837660334,4.,4.047619722111));
#1964=CARTESIAN_POINT('Ctrl Pts',(-21.8941345439528,2.89382971364044,6.));
#1965=CARTESIAN_POINT('Ctrl Pts',(-21.9640717126014,3.26667468478795,5.33803568155551));
#1966=CARTESIAN_POINT('Ctrl Pts',(-21.9969837660284,3.63816701916357,4.68439060493091));
#1967=CARTESIAN_POINT('Ctrl Pts',(-21.9969837660284,4.,4.047619722111));
#1968=CARTESIAN_POINT('',(-21.9969837660284,4.,2.42500535979888E-17));
#1969=CARTESIAN_POINT('',(-21.9969837660284,4.,2.42500535979888E-17));
#1970=CARTESIAN_POINT('Origin',(-15.9969837660283,4.,2.42500535979888E-17));
#1971=CARTESIAN_POINT('Origin',(-2.52242671194836E-12,4.75,11.3150000000001));
#1972=CARTESIAN_POINT('',(3.41460348813965,4.75,22.6299999999998));
#1973=CARTESIAN_POINT('Origin',(3.41460348813846,4.75,4.0476197221099));
#1974=CARTESIAN_POINT('',(-3.41460348814299,4.75,22.6300000000002));
#1975=CARTESIAN_POINT('',(3.41460348813965,4.75,22.6299999999998));
#1976=CARTESIAN_POINT('Origin',(-3.41460348814417,4.75,4.047619722111));
#1977=CARTESIAN_POINT('',(-10.3118863453783,4.75,19.13));
#1978=CARTESIAN_POINT('Origin',(0.,4.75,9.565));
#1979=CARTESIAN_POINT('',(-9.63509211165103,4.75,19.13));
#1980=CARTESIAN_POINT('',(-5.56282302432857,4.75,19.13));
#1981=CARTESIAN_POINT('',(-8.48486225351522,4.75,16.6672065260645));
#1982=CARTESIAN_POINT('Origin',(-9.63509211165103,4.75,17.63));
#1983=CARTESIAN_POINT('',(8.48486225351522,4.75,16.6672065260645));
#1984=CARTESIAN_POINT('Origin',(0.,4.75,9.565));
#1985=CARTESIAN_POINT('',(9.63509211165103,4.75,19.13));
#1986=CARTESIAN_POINT('Origin',(9.63509211165103,4.75,17.63));
#1987=CARTESIAN_POINT('',(10.3118863453783,4.75,19.13));
#1988=CARTESIAN_POINT('',(15.1719837660283,4.75,11.4583647796503));
#1989=CARTESIAN_POINT('',(17.7219837660283,4.75,11.4583647796503));
#1990=CARTESIAN_POINT('Origin',(16.4469837660283,4.75,9.25));
#1991=CARTESIAN_POINT('',(16.4469837660283,4.75,12.1944863728671));
#1992=CARTESIAN_POINT('',(15.1719837660283,4.75,11.4583647796503));
#1993=CARTESIAN_POINT('',(16.4469837660283,4.75,12.1944863728671));
#1994=CARTESIAN_POINT('',(-17.7219837660354,4.75,11.4583647796521));
#1995=CARTESIAN_POINT('',(-15.1719837660303,4.75,11.4583647796573));
#1996=CARTESIAN_POINT('Origin',(-16.4469837660283,4.75,9.25));
#1997=CARTESIAN_POINT('',(-16.4469837660283,4.75,12.1944863728692));
#1998=CARTESIAN_POINT('',(-17.7219837660354,4.75,11.4583647796521));
#1999=CARTESIAN_POINT('',(-16.4469837660283,4.75,12.1944863728692));
#2000=CARTESIAN_POINT('Origin',(16.4469837660283,4.75,12.1944863728671));
#2001=CARTESIAN_POINT('',(15.1719837660283,12.25,11.4583647796503));
#2002=CARTESIAN_POINT('',(15.1719837660283,4.75,11.4583647796503));
#2003=CARTESIAN_POINT('',(16.4469837660283,12.25,12.1944863728671));
#2004=CARTESIAN_POINT('',(15.1719837660283,12.25,11.4583647796503));
#2005=CARTESIAN_POINT('',(16.4469837660283,4.75,12.1944863728671));
#2006=CARTESIAN_POINT('Origin',(17.7219837660283,4.75,11.4583647796503));
#2007=CARTESIAN_POINT('',(17.7219837660283,12.25,11.4583647796503));
#2008=CARTESIAN_POINT('',(16.4469837660283,12.25,12.1944863728671));
#2009=CARTESIAN_POINT('',(17.7219837660283,4.75,11.4583647796503));
#2010=CARTESIAN_POINT('Origin',(16.4469837660283,4.75,9.25));
#2011=CARTESIAN_POINT('Origin',(16.4469837660283,12.25,9.25));
#2012=CARTESIAN_POINT('Origin',(-16.4469837660283,4.75,12.1944863728692));
#2013=CARTESIAN_POINT('',(-17.7219837660354,12.25,11.4583647796521));
#2014=CARTESIAN_POINT('',(-17.7219837660354,4.75,11.4583647796521));
#2015=CARTESIAN_POINT('',(-16.4469837660283,12.25,12.1944863728692));
#2016=CARTESIAN_POINT('',(-17.7219837660354,12.25,11.4583647796521));
#2017=CARTESIAN_POINT('',(-16.4469837660283,4.75,12.1944863728692));
#2018=CARTESIAN_POINT('Origin',(-15.1719837660303,4.75,11.4583647796573));
#2019=CARTESIAN_POINT('',(-15.1719837660303,12.25,11.4583647796573));
#2020=CARTESIAN_POINT('',(-16.4469837660283,12.25,12.1944863728692));
#2021=CARTESIAN_POINT('',(-15.1719837660303,4.75,11.4583647796573));
#2022=CARTESIAN_POINT('Origin',(-16.4469837660283,4.75,9.25));
#2023=CARTESIAN_POINT('Origin',(-16.4469837660283,12.25,9.25));
#2024=CARTESIAN_POINT('Origin',(21.9969837660284,4.75,4.0476197221099));
#2025=CARTESIAN_POINT('',(21.9969837660284,12.25,4.0476197221099));
#2026=CARTESIAN_POINT('',(21.9969837660284,4.75,4.0476197221099));
#2027=CARTESIAN_POINT('',(21.9969837660283,12.25,0.));
#2028=CARTESIAN_POINT('',(21.9969837660283,4.75,2.42500535979888E-17));
#2029=CARTESIAN_POINT('',(21.9969837660283,12.25,-9.55120651880079E-31));
#2030=CARTESIAN_POINT('Origin',(3.41460348813846,4.75,4.0476197221099));
#2031=CARTESIAN_POINT('',(3.41460348813965,12.25,22.6299999999998));
#2032=CARTESIAN_POINT('Origin',(3.41460348813846,12.25,4.0476197221099));
#2033=CARTESIAN_POINT('',(3.41460348813965,4.75,22.6299999999998));
#2034=CARTESIAN_POINT('Origin',(-3.41460348814299,4.75,22.6300000000002));
#2035=CARTESIAN_POINT('',(-3.41460348814299,12.25,22.6300000000002));
#2036=CARTESIAN_POINT('',(3.41460348813965,12.25,22.6299999999998));
#2037=CARTESIAN_POINT('',(-3.41460348814299,4.75,22.6300000000002));
#2038=CARTESIAN_POINT('Origin',(-3.41460348814417,4.75,4.047619722111));
#2039=CARTESIAN_POINT('',(-21.9969837660334,12.25,4.047619722111));
#2040=CARTESIAN_POINT('Origin',(-3.41460348814417,12.25,4.047619722111));
#2041=CARTESIAN_POINT('',(-21.9969837660334,4.75,4.047619722111));
#2042=CARTESIAN_POINT('Origin',(-21.9969837660283,4.75,0.));
#2043=CARTESIAN_POINT('',(-21.9969837660283,12.25,0.));
#2044=CARTESIAN_POINT('',(-21.9969837660283,12.25,0.));
#2045=CARTESIAN_POINT('',(-21.9969837660283,4.75,0.));
#2046=CARTESIAN_POINT('Origin',(-2.52242671194836E-12,12.25,11.3150000000001));
#2047=CARTESIAN_POINT('',(7.00535509449736,12.25,0.));
#2048=CARTESIAN_POINT('',(21.9969837660283,12.25,-9.55120651880079E-31));
#2049=CARTESIAN_POINT('',(7.00535509449736,12.25,1.));
#2050=CARTESIAN_POINT('',(7.00535509449736,12.25,0.));
#2051=CARTESIAN_POINT('',(-7.00535509449735,12.25,1.));
#2052=CARTESIAN_POINT('Origin',(0.,12.25,9.565));
#2053=CARTESIAN_POINT('',(-7.00535509449735,12.25,0.));
#2054=CARTESIAN_POINT('',(-7.00535509449735,12.25,1.));
#2055=CARTESIAN_POINT('',(-7.00535509449735,12.25,0.));
#2056=CARTESIAN_POINT('Origin',(-3.18198051533946,0.,7.78633232069273));
#2057=CARTESIAN_POINT('',(-2.49098383492643,0.,7.20651726101343));
#2058=CARTESIAN_POINT('',(-3.18198051533946,0.,7.78633232069273));
#2059=CARTESIAN_POINT('',(-3.18198051533946,0.,7.78633232069273));
#2060=CARTESIAN_POINT('',(-2.49098383492643,0.,7.20651726101343));
#2061=CARTESIAN_POINT('',(-3.18198051533946,0.,7.78633232069273));
#2062=CARTESIAN_POINT('Origin',(-3.87297719575249,0.,7.20651726101344));
#2063=CARTESIAN_POINT('',(-3.87297719575249,0.,7.20651726101344));
#2064=CARTESIAN_POINT('',(-3.87297719575249,0.,7.20651726101344));
#2065=CARTESIAN_POINT('',(-3.87297719575249,0.,7.20651726101344));
#2066=CARTESIAN_POINT('Origin',(-3.18198051533946,0.,6.38301948466053));
#2067=CARTESIAN_POINT('Origin',(-3.18198051533946,0.,6.38301948466053));
#2068=CARTESIAN_POINT('Origin',(2.49098383492643,0.,7.20651726101344));
#2069=CARTESIAN_POINT('',(3.18198051533946,0.,7.78633232069273));
#2070=CARTESIAN_POINT('',(2.49098383492643,0.,7.20651726101344));
#2071=CARTESIAN_POINT('',(3.18198051533946,0.,7.78633232069273));
#2072=CARTESIAN_POINT('',(3.18198051533946,0.,7.78633232069273));
#2073=CARTESIAN_POINT('',(2.49098383492643,0.,7.20651726101344));
#2074=CARTESIAN_POINT('Origin',(2.47309504708826,0.,7.19116946634851));
#2075=CARTESIAN_POINT('',(2.47309504708826,0.,7.19116946634851));
#2076=CARTESIAN_POINT('',(2.47309504708826,0.,7.19116946634851));
#2077=CARTESIAN_POINT('',(2.47309504708826,0.,7.19116946634851));
#2078=CARTESIAN_POINT('Origin',(3.18198051533946,0.,6.38301948466053));
#2079=CARTESIAN_POINT('',(3.87297719575249,0.,7.20651726101344));
#2080=CARTESIAN_POINT('Origin',(3.18198051533946,0.,6.38301948466053));
#2081=CARTESIAN_POINT('',(3.87297719575249,0.,7.20651726101344));
#2082=CARTESIAN_POINT('Origin',(3.18198051533946,0.,7.78633232069273));
#2083=CARTESIAN_POINT('',(3.18198051533946,0.,7.78633232069273));
#2084=CARTESIAN_POINT('Origin',(1.11022302462516E-15,0.,12.8285182233308));
#2085=CARTESIAN_POINT('',(1.60696902421629,0.,11.4801111077975));
#2086=CARTESIAN_POINT('',(1.11022302462516E-15,0.,12.8285182233308));
#2087=CARTESIAN_POINT('',(1.11022302462516E-15,0.,12.8285182233308));
#2088=CARTESIAN_POINT('',(1.60696902421629,0.,11.4801111077975));
#2089=CARTESIAN_POINT('',(1.11022302462516E-15,0.,12.8285182233308));
#2090=CARTESIAN_POINT('Origin',(-1.60696902421641,0.,11.4801111077974));
#2091=CARTESIAN_POINT('',(-1.60696902421641,0.,11.4801111077974));
#2092=CARTESIAN_POINT('',(-1.60696902421641,0.,11.4801111077974));
#2093=CARTESIAN_POINT('',(-1.60696902421641,0.,11.4801111077974));
#2094=CARTESIAN_POINT('Origin',(0.,0.,9.565));
#2095=CARTESIAN_POINT('Origin',(0.,0.,9.565));
#2096=CARTESIAN_POINT('Origin',(-3.18198051533946,0.,14.1502933513717));
#2097=CARTESIAN_POINT('',(-2.49098383492645,0.,13.5704782916924));
#2098=CARTESIAN_POINT('',(-3.18198051533946,0.,14.1502933513717));
#2099=CARTESIAN_POINT('',(-3.18198051533946,0.,14.1502933513717));
#2100=CARTESIAN_POINT('',(-2.49098383492645,0.,13.5704782916924));
#2101=CARTESIAN_POINT('',(-3.18198051533946,0.,14.1502933513717));
#2102=CARTESIAN_POINT('Origin',(-3.87297719575251,0.,13.5704782916924));
#2103=CARTESIAN_POINT('',(-3.87297719575251,0.,13.5704782916924));
#2104=CARTESIAN_POINT('',(-3.87297719575251,0.,13.5704782916924));
#2105=CARTESIAN_POINT('',(-3.87297719575251,0.,13.5704782916924));
#2106=CARTESIAN_POINT('Origin',(-3.18198051533946,0.,12.7469805153395));
#2107=CARTESIAN_POINT('Origin',(-3.18198051533946,0.,12.7469805153395));
#2108=CARTESIAN_POINT('Origin',(3.18198051533947,0.,14.1502933513738));
#2109=CARTESIAN_POINT('',(3.87297719575101,0.,13.5704782916936));
#2110=CARTESIAN_POINT('',(3.18198051533947,0.,14.1502933513738));
#2111=CARTESIAN_POINT('',(3.18198051533947,0.,14.1502933513738));
#2112=CARTESIAN_POINT('',(3.87297719575101,0.,13.5704782916936));
#2113=CARTESIAN_POINT('',(3.18198051533947,0.,14.1502933513738));
#2114=CARTESIAN_POINT('Origin',(2.49098383492495,0.,13.5704782916911));
#2115=CARTESIAN_POINT('',(2.49098383492495,0.,13.5704782916911));
#2116=CARTESIAN_POINT('',(2.49098383492495,0.,13.5704782916911));
#2117=CARTESIAN_POINT('',(2.49098383492495,0.,13.5704782916911));
#2118=CARTESIAN_POINT('Origin',(3.18198051533946,0.,12.7469805153395));
#2119=CARTESIAN_POINT('Origin',(3.18198051533946,0.,12.7469805153395));
#2120=CARTESIAN_POINT('Origin',(3.,0.,4.5));
#2121=CARTESIAN_POINT('',(3.,0.,4.5));
#2122=CARTESIAN_POINT('',(4.99999996806904,0.,1.34811411879641E-14));
#2123=CARTESIAN_POINT('',(3.,0.,4.5));
#2124=CARTESIAN_POINT('',(4.99999996806904,0.,1.34811411879641E-14));
#2125=CARTESIAN_POINT('',(3.,0.,4.5));
#2126=CARTESIAN_POINT('Origin',(-3.,0.,4.5));
#2127=CARTESIAN_POINT('',(-3.,0.,4.5));
#2128=CARTESIAN_POINT('',(-3.,0.,4.5));
#2129=CARTESIAN_POINT('',(-3.,0.,4.5));
#2130=CARTESIAN_POINT('Origin',(-5.00000003193096,0.,9.84176858667781E-16));
#2131=CARTESIAN_POINT('',(-5.00000003193096,0.,9.84176858667781E-16));
#2132=CARTESIAN_POINT('',(-5.00000003193096,0.,9.84176858667781E-16));
#2133=CARTESIAN_POINT('',(-5.00000003193096,0.,9.84176858667781E-16));
#2134=CARTESIAN_POINT('Origin',(2.22044604925031E-15,0.,9.565));
#2135=CARTESIAN_POINT('',(7.00535509449736,0.,1.));
#2136=CARTESIAN_POINT('',(7.00535509449736,0.,0.));
#2137=CARTESIAN_POINT('',(7.00535509449736,0.,1.));
#2138=CARTESIAN_POINT('',(7.00535509449736,0.,0.));
#2139=CARTESIAN_POINT('',(-7.00535509449735,0.,0.));
#2140=CARTESIAN_POINT('',(-7.00535509449735,0.,0.));
#2141=CARTESIAN_POINT('',(-7.00535509449735,0.,1.));
#2142=CARTESIAN_POINT('',(-7.00535509449735,0.,1.));
#2143=CARTESIAN_POINT('',(-8.48486225351522,0.,16.6672065260645));
#2144=CARTESIAN_POINT('Origin',(0.,0.,9.565));
#2145=CARTESIAN_POINT('',(-9.63509211165103,0.,19.13));
#2146=CARTESIAN_POINT('Origin',(-9.63509211165103,0.,17.63));
#2147=CARTESIAN_POINT('',(9.63509211165103,0.,19.13));
#2148=CARTESIAN_POINT('',(-9.63509211165103,0.,19.13));
#2149=CARTESIAN_POINT('',(8.48486225351522,0.,16.6672065260645));
#2150=CARTESIAN_POINT('Origin',(9.63509211165103,0.,17.63));
#2151=CARTESIAN_POINT('Origin',(0.,0.,9.565));
#2152=CARTESIAN_POINT('Origin',(-9.63509211165103,0.,17.63));
#2153=CARTESIAN_POINT('',(-9.63509211165103,0.,19.13));
#2154=CARTESIAN_POINT('',(-8.48486225351522,0.,16.6672065260645));
#2155=CARTESIAN_POINT('Origin',(0.,0.,9.565));
#2156=CARTESIAN_POINT('',(-7.00535509449735,0.,1.));
#2157=CARTESIAN_POINT('',(7.00535509449736,0.,1.));
#2158=CARTESIAN_POINT('',(8.48486225351522,0.,16.6672065260645));
#2159=CARTESIAN_POINT('Origin',(0.,0.,9.565));
#2160=CARTESIAN_POINT('',(-10.3118863453783,0.,19.13));
#2161=CARTESIAN_POINT('Origin',(-7.00535509449735,0.,-1.30818067687775E-17));
#2162=CARTESIAN_POINT('',(-7.00535509449735,0.,0.));
#2163=CARTESIAN_POINT('Origin',(-7.00535509449735,0.,1.));
#2164=CARTESIAN_POINT('Origin',(9.63509211165103,0.,17.63));
#2165=CARTESIAN_POINT('',(9.63509211165103,0.,19.13));
#2166=CARTESIAN_POINT('Origin',(5.56282302432857,0.,19.13));
#2167=CARTESIAN_POINT('Origin',(7.00535509449736,0.,0.));
#2168=CARTESIAN_POINT('',(7.00535509449736,0.,0.));
#2169=CARTESIAN_POINT('Origin',(14.065,0.,2.62649943822809E-17));
#2170=UNCERTAINTY_MEASURE_WITH_UNIT(LENGTH_MEASURE(0.01),#2174,
'DISTANCE_ACCURACY_VALUE',
'Maximum model space distance between geometric entities at asserted c
onnectivities');
#2171=UNCERTAINTY_MEASURE_WITH_UNIT(LENGTH_MEASURE(0.01),#2174,
'DISTANCE_ACCURACY_VALUE',
'Maximum model space distance between geometric entities at asserted c
onnectivities');
#2172=(
GEOMETRIC_REPRESENTATION_CONTEXT(3)
GLOBAL_UNCERTAINTY_ASSIGNED_CONTEXT((#2170))
GLOBAL_UNIT_ASSIGNED_CONTEXT((#2174,#2176,#2177))
REPRESENTATION_CONTEXT('','3D')
);
#2173=(
GEOMETRIC_REPRESENTATION_CONTEXT(3)
GLOBAL_UNCERTAINTY_ASSIGNED_CONTEXT((#2171))
GLOBAL_UNIT_ASSIGNED_CONTEXT((#2174,#2176,#2177))
REPRESENTATION_CONTEXT('','3D')
);
#2174=(
LENGTH_UNIT()
NAMED_UNIT(*)
SI_UNIT(.MILLI.,.METRE.)
);
#2175=(
LENGTH_UNIT()
NAMED_UNIT(*)
SI_UNIT($,.METRE.)
);
#2176=(
NAMED_UNIT(*)
PLANE_ANGLE_UNIT()
SI_UNIT($,.RADIAN.)
);
#2177=(
NAMED_UNIT(*)
SI_UNIT($,.STERADIAN.)
SOLID_ANGLE_UNIT()
);
#2178=SHAPE_DEFINITION_REPRESENTATION(#2179,#2180);
#2179=PRODUCT_DEFINITION_SHAPE('',$,#2182);
#2180=SHAPE_REPRESENTATION('',(#1310),#2172);
#2181=PRODUCT_DEFINITION_CONTEXT('part definition',#2186,'design');
#2182=PRODUCT_DEFINITION('Base','Base',#2183,#2181);
#2183=PRODUCT_DEFINITION_FORMATION('',$,#2188);
#2184=PRODUCT_RELATED_PRODUCT_CATEGORY('Base','Base',(#2188));
#2185=APPLICATION_PROTOCOL_DEFINITION('international standard',
'automotive_design',2009,#2186);
#2186=APPLICATION_CONTEXT(
'Core Data for Automotive Mechanical Design Process');
#2187=PRODUCT_CONTEXT('part definition',#2186,'mechanical');
#2188=PRODUCT('Base','Base',$,(#2187));
#2189=PRESENTATION_STYLE_ASSIGNMENT((#2190));
#2190=SURFACE_STYLE_USAGE(.BOTH.,#2191);
#2191=SURFACE_SIDE_STYLE('',(#2192));
#2192=SURFACE_STYLE_FILL_AREA(#2193);
#2193=FILL_AREA_STYLE('Steel - Satin',(#2194));
#2194=FILL_AREA_STYLE_COLOUR('Steel - Satin',#2195);
#2195=COLOUR_RGB('Steel - Satin',0.627450980392157,0.627450980392157,0.627450980392157);
ENDSEC;
END-ISO-10303-21;
